<?xml version="1.0" encoding="utf-8"?>
<!-- Generator: Adobe Illustrator 26.3.1, SVG Export Plug-In . SVG Version: 6.00 Build 0)  -->
<svg version="1.1" id="Layer_1" xmlns="http://www.w3.org/2000/svg" xmlns:xlink="http://www.w3.org/1999/xlink" x="0px" y="0px"
	 viewBox="0 0 800 800" style="enable-background:new 0 0 800 800;" xml:space="preserve">
<style type="text/css">
	.st0{fill:#434345;}
	.st1{fill:#7F3F98;}
	.st2{fill:#414042;}
	.st3{fill:#FFFFFF;}
	.st4{fill:#58595B;}
	.st5{fill:#00AEEF;}
</style>
<g id="Layer_1_00000146479523266842170860000011946408775072598930_">
	<g id="XMLID_00000147218209956274215790000017847217669735594903_">
		<g>
			<g>
				<path class="st0" d="M771.5,298v466c0,6.6-5.4,12-12,12H559V298H771.5z M760.6,396.7v-18c0-6.6-5.4-12-12-12H581
					c-6.6,0-12,5.4-12,12v18c0,6.6,5.4,12,12,12h167.5C755.2,408.7,760.6,403.3,760.6,396.7z M760.6,345.7v-18c0-6.6-5.4-12-12-12
					H581c-6.6,0-12,5.4-12,12v18c0,6.6,5.4,12,12,12h167.5C755.2,357.7,760.6,352.3,760.6,345.7z"/>
			</g>
			<g>
				<path class="st1" d="M771.5,268v30H559H28.5v-30c0-6.6,5.4-12,12-12h719C766.1,256,771.5,261.4,771.5,268z"/>
			</g>
			<g>
				<path class="st2" d="M760.6,378.7v18c0,6.6-5.4,12-12,12H581c-6.6,0-12-5.4-12-12v-18c0-6.6,5.4-12,12-12h167.5
					C755.2,366.7,760.6,372.1,760.6,378.7z"/>
			</g>
			<g>
				<path class="st2" d="M760.6,327.7v18c0,6.6-5.4,12-12,12H581c-6.6,0-12-5.4-12-12v-18c0-6.6,5.4-12,12-12h167.5
					C755.2,315.7,760.6,321.1,760.6,327.7z"/>
			</g>
			<g>
				<path class="st2" d="M559,298v478H40.5c-6.6,0-12-5.4-12-12V298H559z M543.6,449.7v-18c0-6.6-5.4-12-12-12h-478
					c-6.6,0-12,5.4-12,12v18c0,6.6,5.4,12,12,12h478C538.2,461.7,543.6,456.3,543.6,449.7z M543.6,397.7v-18c0-6.6-5.4-12-12-12
					h-478c-6.6,0-12,5.4-12,12v18c0,6.6,5.4,12,12,12h478C538.2,409.7,543.6,404.3,543.6,397.7z M543.6,345.7v-18
					c0-6.6-5.4-12-12-12h-478c-6.6,0-12,5.4-12,12v18c0,6.6,5.4,12,12,12h478C538.2,357.7,543.6,352.3,543.6,345.7z"/>
			</g>
			<g>
				<path class="st2" d="M543.6,431.7v18c0,6.6-5.4,12-12,12h-478c-6.6,0-12-5.4-12-12v-18c0-6.6,5.4-12,12-12h478
					C538.2,419.7,543.6,425.1,543.6,431.7z"/>
			</g>
			<g>
				<path class="st2" d="M543.6,379.7v18c0,6.6-5.4,12-12,12h-478c-6.6,0-12-5.4-12-12v-18c0-6.6,5.4-12,12-12h478
					C538.2,367.7,543.6,373.1,543.6,379.7z"/>
			</g>
			<g>
				<path class="st2" d="M543.6,327.7v18c0,6.6-5.4,12-12,12h-478c-6.6,0-12-5.4-12-12v-18c0-6.6,5.4-12,12-12h478
					C538.2,315.7,543.6,321.1,543.6,327.7z"/>
			</g>
		</g>
		<g>
			<g>
				<path d="M759.5,779.5h-719c-8.5,0-15.5-7-15.5-15.5V268c0-8.5,7-15.5,15.5-15.5h719c8.5,0,15.5,7,15.5,15.5v496
					C775,772.5,768,779.5,759.5,779.5z M40.5,259.5c-4.7,0-8.5,3.8-8.5,8.5v496c0,4.7,3.8,8.5,8.5,8.5h719c4.7,0,8.5-3.8,8.5-8.5
					V268c0-4.7-3.8-8.5-8.5-8.5H40.5z"/>
			</g>
			<g>
				<rect x="28.5" y="294.5" width="743" height="7"/>
			</g>
			<g>
				<rect x="555.5" y="298" width="7" height="478"/>
			</g>
			<g>
				<rect x="41.6" y="267.6" class="st3" width="22.1" height="2"/>
			</g>
			<g>
				<rect x="41.6" y="274.6" class="st3" width="22.1" height="2"/>
			</g>
			<g>
				<rect x="41.6" y="281.6" class="st3" width="22.1" height="2"/>
			</g>
			<g>
				<path d="M531.6,358.7h-478c-7.2,0-13-5.8-13-13v-18c0-7.2,5.8-13,13-13h478c7.2,0,13,5.8,13,13v18
					C544.6,352.8,538.8,358.7,531.6,358.7z M53.6,316.7c-6.1,0-11,4.9-11,11v18c0,6.1,4.9,11,11,11h478c6.1,0,11-4.9,11-11v-18
					c0-6.1-4.9-11-11-11H53.6z"/>
			</g>
			<g>
				<rect x="52.6" y="324.8" class="st3" width="185.2" height="6"/>
			</g>
			<g>
				<rect x="52.6" y="341.3" class="st4" width="76.7" height="3"/>
			</g>
			<g>
				<path d="M531.6,410.7h-478c-7.2,0-13-5.8-13-13v-18c0-7.2,5.8-13,13-13h478c7.2,0,13,5.8,13,13v18
					C544.6,404.8,538.8,410.7,531.6,410.7z M53.6,368.7c-6.1,0-11,4.9-11,11v18c0,6.1,4.9,11,11,11h478c6.1,0,11-4.9,11-11v-18
					c0-6.1-4.9-11-11-11H53.6z"/>
			</g>
			<g>
				<rect x="52.6" y="376.8" class="st3" width="185.2" height="6"/>
			</g>
			<g>
				<rect x="52.6" y="393.3" class="st4" width="76.7" height="3"/>
			</g>
			<g>
				<path d="M531.6,462.7h-478c-7.2,0-13-5.8-13-13v-18c0-7.2,5.8-13,13-13h478c7.2,0,13,5.8,13,13v18
					C544.6,456.8,538.8,462.7,531.6,462.7z M53.6,420.7c-6.1,0-11,4.9-11,11v18c0,6.1,4.9,11,11,11h478c6.1,0,11-4.9,11-11v-18
					c0-6.1-4.9-11-11-11H53.6z"/>
			</g>
			<g>
				<rect x="52.6" y="428.8" class="st3" width="185.2" height="6"/>
			</g>
			<g>
				<rect x="52.6" y="445.3" class="st4" width="76.7" height="3"/>
			</g>
			<g>
				<path d="M748.6,358.7H581c-7.2,0-13-5.8-13-13v-18c0-7.2,5.8-13,13-13h167.5c7.2,0,13,5.8,13,13v18
					C761.6,352.8,755.7,358.7,748.6,358.7z M581,316.7c-6.1,0-11,4.9-11,11v18c0,6.1,4.9,11,11,11h167.5c6.1,0,11-4.9,11-11v-18
					c0-6.1-4.9-11-11-11H581z"/>
			</g>
			<g>
				<rect x="573.2" y="324.8" class="st3" width="70.7" height="6"/>
			</g>
			<g>
				<rect x="573.2" y="341.3" class="st4" width="29.3" height="3"/>
			</g>
			<g>
				<path d="M748.6,409.7H581c-7.2,0-13-5.8-13-13v-18c0-7.2,5.8-13,13-13h167.5c7.2,0,13,5.8,13,13v18
					C761.6,403.8,755.7,409.7,748.6,409.7z M581,367.7c-6.1,0-11,4.9-11,11v18c0,6.1,4.9,11,11,11h167.5c6.1,0,11-4.9,11-11v-18
					c0-6.1-4.9-11-11-11H581z"/>
			</g>
			<g>
				<rect x="573.2" y="375.8" class="st3" width="70.7" height="6"/>
			</g>
			<g>
				<rect x="573.2" y="392.3" class="st4" width="29.3" height="3"/>
			</g>
		</g>
	</g>
	<g>
		<rect x="68.9" y="271.1" class="st3" width="64.1" height="9"/>
	</g>
</g>
<g id="Layer_2_00000098186676682059734990000005580604063148943237_">
	<g id="XMLID_00000007390674999948210200000007718961198854626446_">
		
			<image style="overflow:visible;opacity:0.75;enable-background:new    ;" width="2883" height="3088" xlink:href="A1D70FC44989BD18.png"  transform="matrix(0.2397 0 0 0.2397 60.48 -16.6459)">
		</image>
		<g>
			<g>
				<g>
					<g>
						<path class="st5" d="M494.6,414.8C494.6,414.8,494.6,414.8,494.6,414.8l-181.1-1.5c-1.4,0-2.5-1.1-2.5-2.5
							c0-1.4,1.1-2.5,2.5-2.5c0,0,0,0,0,0l181.1,1.5c1.4,0,2.5,1.1,2.5,2.5C497.1,413.7,496,414.8,494.6,414.8z"/>
					</g>
					<g>
						<path class="st5" d="M313.5,413.2c-0.9,0-1.7-0.5-2.2-1.3l-21.6-39.3c-0.7-1.2-0.2-2.7,1-3.4c1.2-0.7,2.7-0.2,3.4,1l21.6,39.3
							c0.7,1.2,0.2,2.7-1,3.4C314.4,413.2,313.9,413.2,313.5,413.2z"/>
					</g>
					<g>
						<path class="st5" d="M291.9,373.9c-0.5,0-0.9-0.1-1.4-0.4c-1.2-0.8-1.5-2.3-0.7-3.5l17.5-26.6c0.8-1.2,2.3-1.5,3.5-0.7
							c1.2,0.8,1.5,2.3,0.7,3.5L294,372.8C293.5,373.5,292.7,373.9,291.9,373.9z"/>
					</g>
					<g>
						<path class="st5" d="M405.8,347.3h-96.4c-1.4,0-2.5-1.1-2.5-2.5s1.1-2.5,2.5-2.5h96.4c1.4,0,2.5,1.1,2.5,2.5
							S407.2,347.3,405.8,347.3z"/>
					</g>
					<g>
						<path class="st5" d="M318.1,347.3c-1.4,0-2.5-1.1-2.5-2.5c0-21.9,39.6-39,90.2-39c1.4,0,2.5,1.1,2.5,2.5s-1.1,2.5-2.5,2.5
							c-46.2,0-85.2,15.6-85.2,34C320.6,346.2,319.5,347.3,318.1,347.3z"/>
					</g>
					<g>
						<path class="st5" d="M329.7,585.9c-1.4,0-2.5-1.1-2.5-2.5V410.9c0-1.4,1.1-2.5,2.5-2.5s2.5,1.1,2.5,2.5v172.5
							C332.2,584.8,331.1,585.9,329.7,585.9z"/>
					</g>
					<g>
						<path class="st5" d="M405.8,585.9h-76.1c-1.4,0-2.5-1.1-2.5-2.5s1.1-2.5,2.5-2.5h76.1c1.4,0,2.5,1.1,2.5,2.5
							S407.2,585.9,405.8,585.9z"/>
					</g>
					<g>
						<path class="st5" d="M318.5,600.4c-0.5,0-1.1-0.2-1.5-0.5c-1.1-0.8-1.3-2.4-0.4-3.5l11.2-14.5c0.8-1.1,2.4-1.3,3.5-0.4
							c1.1,0.8,1.3,2.4,0.4,3.5l-11.2,14.5C320,600,319.2,600.4,318.5,600.4z"/>
					</g>
					<g>
						<path class="st5" d="M337.7,616.1c-0.6,0-1.1-0.2-1.6-0.6l-19.2-15.8c-1.1-0.9-1.2-2.5-0.3-3.5c0.9-1.1,2.5-1.2,3.5-0.3
							l19.2,15.8c1.1,0.9,1.2,2.5,0.3,3.5C339.2,615.8,338.5,616.1,337.7,616.1z"/>
					</g>
					<g>
						<path class="st5" d="M405.8,616.1h-68.1c-1.4,0-2.5-1.1-2.5-2.5s1.1-2.5,2.5-2.5h68.1c1.4,0,2.5,1.1,2.5,2.5
							S407.2,616.1,405.8,616.1z"/>
					</g>
					<g>
						<path class="st5" d="M405.8,670.5c-0.6,0-1.3-0.2-1.8-0.7l-54.4-54.4c-1-1-1-2.6,0-3.5c1-1,2.6-1,3.5,0l54.3,54.4
							c1,1,1,2.6,0,3.5C407.1,670.3,406.4,670.5,405.8,670.5z"/>
					</g>
					<g>
						<path class="st5" d="M329.7,426.6c-13.6,0-38.1-3-50.5-22.9c-13.4-21.7-8.3-56.7,15.2-104.3c0.6-1.2,2.1-1.7,3.4-1.1
							c1.2,0.6,1.7,2.1,1.1,3.4c-22.7,45.9-27.9,79.3-15.5,99.4c11.1,17.9,33.8,20.6,46.3,20.6c1.4,0,2.5,1.1,2.5,2.5
							S331.1,426.6,329.7,426.6z"/>
					</g>
					<g>
						<path class="st5" d="M296.7,303c-0.6,0-1.1-0.2-1.6-0.6l-27.9-23.3c-1.1-0.9-1.2-2.5-0.3-3.5c0.9-1.1,2.5-1.2,3.5-0.3
							l27.9,23.3c1.1,0.9,1.2,2.5,0.3,3.5C298.1,302.7,297.4,303,296.7,303z"/>
					</g>
					<g>
						<path class="st5" d="M285.7,293.8c-0.6,0-1.1-0.2-1.6-0.6c-1.1-0.9-1.2-2.4-0.4-3.5c33.5-41.3,56.5-58.9,112-61.1
							c1.3-0.1,2.5,1,2.6,2.4c0.1,1.4-1,2.5-2.4,2.6c-52.9,2.1-74.3,17.4-108.3,59.2C287.1,293.5,286.4,293.8,285.7,293.8z"/>
					</g>
					<g>
						<path class="st5" d="M329.8,459.7c-0.3,0-0.6,0-0.8-0.1c0,0-0.1,0-0.1,0v0c-8.1-3-7.8-8.4-7.2-10.7c0.9-3.8,4.8-8.3,7.9-8
							c1.6,0.2,2.7,1.5,2.7,3.1c0,1.4-1.1,2.5-2.5,2.5c-0.3,0-0.6-0.1-0.9-0.2c-1,0.9-2.5,2.8-2.5,4.6c0,1.6,1.4,2.9,4.1,3.9
							l0.4,0.2c1.2,0.6,1.8,2.1,1.2,3.3C331.6,459.2,330.7,459.7,329.8,459.7z"/>
					</g>
					<g>
						<path class="st5" d="M308.8,491.3c-1,0-2-0.7-2.4-1.7c-0.4-1.3,0.3-2.7,1.6-3.2l21-6.9c1.3-0.4,2.7,0.3,3.2,1.6
							c0.4,1.3-0.3,2.7-1.6,3.2l-21,6.9C309.3,491.2,309,491.3,308.8,491.3z"/>
					</g>
					<g>
						<path class="st5" d="M329.8,506.2c-0.3,0-0.6,0-0.8-0.1c0,0,0,0,0,0c-9.9-3.3-18-10.6-20.8-16.1c-0.6-1.2-0.1-2.7,1.1-3.4
							c1.2-0.6,2.7-0.1,3.4,1.1c2,3.8,8.8,10.6,17.9,13.6l0.4,0.2c1.2,0.6,1.8,2.1,1.2,3.3C331.6,505.6,330.7,506.2,329.8,506.2z"/>
					</g>
					<g>
						<path class="st5" d="M268.8,279.7c-0.5,0-1-0.2-1.5-0.5l-4.8-3.5c-1.1-0.8-1.4-2.4-0.6-3.5c0.8-1.1,2.4-1.4,3.5-0.6l4.8,3.5
							c1.1,0.8,1.4,2.4,0.6,3.5C270.3,279.3,269.6,279.7,268.8,279.7z"/>
					</g>
					<g>
						<path class="st5" d="M264,276.2c-0.3,0-0.6-0.1-0.9-0.2l-23.5-9.3c-1.3-0.5-1.9-2-1.4-3.2c0.5-1.3,2-1.9,3.2-1.4l23.5,9.3
							c1.3,0.5,1.9,2,1.4,3.2C266,275.6,265,276.2,264,276.2z"/>
					</g>
					<g>
						<path class="st5" d="M241.1,271.6c-1.2,0-2.3-0.9-2.5-2.2l-0.6-4.6c-0.2-1.4,0.8-2.6,2.1-2.8c1.4-0.2,2.6,0.8,2.8,2.1l0.6,4.6
							c0.2,1.4-0.8,2.6-2.1,2.8C241.4,271.6,241.3,271.6,241.1,271.6z"/>
					</g>
					<g>
						<path class="st5" d="M232.5,290.4c-1.2,0-2.4-0.1-3.7-0.4c-1.4-0.3-2.3-1.6-2-2.9c0.3-1.4,1.6-2.2,2.9-2
							c4.4,0.8,8-0.2,9.9-2.8c2.1-2.9,1.8-7.3-0.7-12c-0.7-1.2-0.2-2.7,1-3.4c1.2-0.7,2.7-0.2,3.4,1c3.5,6.5,3.6,12.8,0.4,17.3
							C241.3,288.6,237.2,290.4,232.5,290.4z"/>
					</g>
					<g>
						<path class="st5" d="M224.3,292.5c-0.9,0-1.8-0.5-2.3-1.4c-0.6-1.2-0.1-2.7,1.2-3.3l5-2.4c1.2-0.6,2.7-0.1,3.3,1.2
							c0.6,1.2,0.1,2.7-1.2,3.3l-5,2.4C225,292.4,224.7,292.5,224.3,292.5z"/>
					</g>
					<g>
						<path class="st5" d="M240.8,306.3c-0.6,0-1.1-0.2-1.6-0.6l-0.6-0.5l-15.9-13.3c-1.1-0.9-1.2-2.5-0.3-3.5
							c0.9-1.1,2.5-1.2,3.5-0.3l16.5,13.8c1.1,0.9,1.2,2.5,0.3,3.5C242.2,306,241.5,306.3,240.8,306.3z"/>
					</g>
					<g>
						<path class="st5" d="M232.6,320.9C232.6,320.9,232.6,320.9,232.6,320.9l-19.9-0.1c-1.4,0-2.5-1.1-2.5-2.5
							c0-1.4,1.1-2.5,2.5-2.5c0,0,0,0,0,0l19.9,0.1c1.4,0,2.5,1.1,2.5,2.5C235.1,319.7,233.9,320.9,232.6,320.9z"/>
					</g>
					<g>
						<path class="st5" d="M215,324.9c-0.9,0-1.7-0.5-2.2-1.3l-2.3-4.1c-0.7-1.2-0.2-2.7,1-3.4c1.2-0.7,2.7-0.2,3.4,1l2.3,4.1
							c0.7,1.2,0.2,2.7-1,3.4C215.8,324.8,215.4,324.9,215,324.9z"/>
					</g>
					<g>
						<path class="st5" d="M210.6,346.4c-1.2,0-2.2-0.8-2.5-2c-0.3-1.4,0.6-2.7,2-2.9c4.4-0.8,7.4-3.1,8.2-6.2c0.9-3.4-1-7.5-5-10.9
							c-1.1-0.9-1.2-2.5-0.3-3.5c0.9-1.1,2.5-1.2,3.5-0.3c5.6,4.8,8.1,10.6,6.6,16c-1.3,5-5.9,8.7-12.1,9.9
							C210.9,346.4,210.8,346.4,210.6,346.4z"/>
					</g>
					<g>
						<path class="st5" d="M206.8,350.4c-0.6,0-1.2-0.2-1.7-0.7c-1-0.9-1.1-2.5-0.1-3.5l3.8-4c0.9-1,2.5-1.1,3.5-0.1
							c1,0.9,1.1,2.5,0.1,3.5l-3.8,4C208.2,350.2,207.5,350.4,206.8,350.4z"/>
					</g>
					<g>
						<path class="st5" d="M224.3,356.3c-0.3,0-0.5,0-0.8-0.1l-17.4-5.9c-1.3-0.4-2-1.9-1.6-3.2c0.4-1.3,1.9-2,3.2-1.6l17.4,5.9
							c1.3,0.4,2,1.9,1.6,3.2C226.3,355.6,225.3,356.3,224.3,356.3z"/>
					</g>
					<g>
						<path class="st5" d="M227.3,411.9c-0.1,0-0.1,0-0.2,0l-21.5-1.4c-1.4-0.1-2.4-1.3-2.3-2.7c0.1-1.4,1.3-2.4,2.7-2.3l21.5,1.4
							c1.4,0.1,2.4,1.3,2.3,2.7C229.7,410.9,228.6,411.9,227.3,411.9z"/>
					</g>
					<g>
						<path class="st5" d="M203.9,380.4c-1.1,0-2.1-0.7-2.4-1.9c-0.3-1.3,0.5-2.7,1.8-3l19.8-5.2c1.3-0.3,2.7,0.5,3,1.8
							c0.3,1.3-0.5,2.7-1.8,3l-19.8,5.2C204.3,380.3,204.1,380.4,203.9,380.4z"/>
					</g>
					<g>
						<path class="st5" d="M207.1,383.7c-0.7,0-1.3-0.3-1.8-0.8l-3.3-3.4c-1-1-0.9-2.6,0.1-3.5c1-1,2.6-0.9,3.5,0.1l3.3,3.4
							c1,1,0.9,2.6-0.1,3.5C208.4,383.5,207.7,383.7,207.1,383.7z"/>
					</g>
					<g>
						<path class="st5" d="M208.4,405.7c-0.9,0-1.8-0.5-2.3-1.4c-0.6-1.2-0.1-2.7,1.2-3.3c4.1-1.9,6.4-4.9,6.4-8.1
							c0-3.6-2.8-7-7.7-9.3c-1.2-0.6-1.8-2.1-1.2-3.3c0.6-1.2,2.1-1.8,3.3-1.2c6.7,3.2,10.5,8.2,10.5,13.8c0,5.2-3.4,9.9-9.2,12.7
							C209.1,405.6,208.8,405.7,208.4,405.7z"/>
					</g>
					<g>
						<path class="st5" d="M205.8,410.5c-0.4,0-0.8-0.1-1.2-0.3c-1.2-0.7-1.7-2.2-1-3.4l2.6-4.8c0.7-1.2,2.2-1.7,3.4-1
							c1.2,0.7,1.7,2.2,1,3.4l-2.6,4.8C207.5,410,206.7,410.5,205.8,410.5z"/>
					</g>
					<g>
						<path class="st5" d="M229.3,412.1c-0.1,0-0.1,0-0.2,0l-23.5-1.6c-1.4-0.1-2.4-1.3-2.3-2.7c0.1-1.4,1.3-2.4,2.7-2.3l23.5,1.6
							c1.4,0.1,2.4,1.3,2.3,2.7C231.7,411.1,230.6,412.1,229.3,412.1z"/>
					</g>
					<g>
						<path class="st5" d="M216.9,435.7c-0.8,0-1.7-0.4-2.1-1.2c-0.7-1.2-0.3-2.7,0.8-3.4l16.5-10c1.2-0.7,2.7-0.3,3.4,0.8
							c0.7,1.2,0.3,2.7-0.8,3.4l-16.5,10C217.8,435.6,217.3,435.7,216.9,435.7z"/>
					</g>
					<g>
						<path class="st5" d="M221,438c-0.4,0-0.8-0.1-1.2-0.3l-4.1-2.3c-1.2-0.7-1.6-2.2-1-3.4c0.7-1.2,2.2-1.6,3.4-1l4.1,2.3
							c1.2,0.7,1.6,2.2,1,3.4C222.7,437.5,221.9,438,221,438z"/>
					</g>
					<g>
						<path class="st5" d="M228.5,458.6c-0.7,0-1.4-0.3-1.9-0.8c-0.9-1-0.8-2.6,0.2-3.5c3.3-3,4.7-6.5,3.8-9.6
							c-1-3.4-4.7-5.9-10-6.7c-1.4-0.2-2.3-1.5-2.1-2.9c0.2-1.4,1.5-2.3,2.9-2.1c7.3,1.1,12.4,4.9,14,10.2
							c1.5,4.9-0.5,10.5-5.2,14.8C229.7,458.4,229.1,458.6,228.5,458.6z"/>
					</g>
					<g>
						<path class="st5" d="M227.4,464c-0.2,0-0.3,0-0.5-0.1c-1.4-0.3-2.2-1.6-1.9-3l1.1-5.4c0.3-1.4,1.6-2.2,3-1.9
							c1.4,0.3,2.2,1.6,1.9,3l-1.1,5.4C229.6,463.2,228.5,464,227.4,464z"/>
					</g>
					<g>
						<path class="st5" d="M227.4,464c-1.1,0-2.2-0.8-2.4-1.9c-0.3-1.3,0.5-2.7,1.9-3l21-4.8c1.3-0.3,2.7,0.5,3,1.9
							c0.3,1.3-0.5,2.7-1.9,3l-0.5,0.1l-20.5,4.7C227.7,464,227.5,464,227.4,464z"/>
					</g>
					<g>
						<path class="st5" d="M239.7,492.7c-0.5,0-1.1-0.2-1.6-0.5c-1.1-0.9-1.3-2.4-0.4-3.5l15.8-19.8c0.9-1.1,2.5-1.2,3.5-0.3
							c1.1,0.9,1.2,2.5,0.3,3.5l0,0.1l-15.7,19.7C241.2,492.4,240.5,492.7,239.7,492.7z"/>
					</g>
					<g>
						<path class="st5" d="M244.4,493.4c-0.1,0-0.3,0-0.4,0l-4.6-0.7c-1.4-0.2-2.3-1.5-2.1-2.9c0.2-1.4,1.5-2.3,2.9-2.1l4.6,0.7
							c1.4,0.2,2.3,1.5,2.1,2.9C246.6,492.6,245.6,493.4,244.4,493.4z"/>
					</g>
					<g>
						<path class="st5" d="M258.5,510.2c-0.4,0-0.8-0.1-1.2-0.3c-1.2-0.6-1.7-2.2-1.1-3.4c2.1-4,2.2-7.7,0.2-10.3
							c-2.1-2.8-6.5-3.9-11.7-2.8c-1.4,0.3-2.7-0.6-2.9-2c-0.3-1.4,0.6-2.7,2-2.9c7.2-1.5,13.3,0.3,16.7,4.7
							c3.1,4.1,3.2,10,0.2,15.7C260.3,509.7,259.4,510.2,258.5,510.2z"/>
					</g>
					<g>
						<path class="st5" d="M259.3,515.7c-1.2,0-2.3-0.9-2.5-2.1l-0.8-5.5c-0.2-1.4,0.7-2.6,2.1-2.8c1.4-0.2,2.6,0.7,2.8,2.1l0.8,5.5
							c0.2,1.4-0.7,2.6-2.1,2.8C259.6,515.7,259.5,515.7,259.3,515.7z"/>
					</g>
					<g>
						<path class="st5" d="M259.3,515.7c-0.8,0-1.6-0.4-2.1-1.1c-0.8-1.2-0.4-2.7,0.7-3.5l18.1-11.8c1.2-0.8,2.7-0.4,3.5,0.7
							c0.8,1.2,0.4,2.7-0.7,3.5l-18.1,11.8C260.3,515.5,259.8,515.7,259.3,515.7z"/>
					</g>
					<g>
						<path class="st5" d="M280.7,534.8c-0.3,0-0.6-0.1-0.9-0.2c-1.3-0.5-1.9-2-1.4-3.2l7.6-19.2c0.3-1,1.3-1.6,2.4-1.6
							c1.4,0,2.5,1.1,2.5,2.5v0.5l-7.8,19.7C282.7,534.2,281.7,534.8,280.7,534.8z"/>
					</g>
					<g>
						<path class="st5" d="M280.7,534.8c-1.2,0-2.3-0.9-2.5-2.2c-0.2-1.4,0.8-2.6,2.1-2.8l4.6-0.6c1.4-0.2,2.6,0.8,2.8,2.1
							c0.2,1.4-0.8,2.6-2.1,2.8l-4.6,0.6C281,534.7,280.9,534.8,280.7,534.8z"/>
					</g>
					<g>
						<path class="st5" d="M303.9,546c-0.2,0-0.3,0-0.5,0c-1.4-0.3-2.3-1.6-2-2.9c0.8-4.4-0.2-8-2.8-9.9c-2.9-2.1-7.3-1.8-12,0.7
							c-1.2,0.7-2.7,0.2-3.4-1c-0.7-1.2-0.2-2.7,1-3.4c6.5-3.5,12.8-3.7,17.3-0.4c4.2,3,6,8.6,4.8,14.9
							C306.1,545.2,305.1,546,303.9,546z"/>
					</g>
					<g>
						<path class="st5" d="M306.3,551c-0.9,0-1.8-0.5-2.3-1.4l-2.4-5c-0.6-1.2-0.1-2.7,1.2-3.3c1.2-0.6,2.7-0.1,3.3,1.2l2.4,5
							c0.6,1.2,0.1,2.7-1.2,3.3C307,550.9,306.6,551,306.3,551z"/>
					</g>
					<g>
						<path class="st5" d="M306.2,551c-0.6,0-1.1-0.2-1.6-0.6c-1.1-0.9-1.2-2.5-0.3-3.5l13.8-16.5c0.9-1.1,2.5-1.2,3.5-0.3
							c1.1,0.9,1.2,2.5,0.3,3.5l-13.8,16.5C307.7,550.7,307,551,306.2,551z"/>
					</g>
					<g>
						<path class="st5" d="M320.1,534.4c-0.6,0-1.1-0.2-1.6-0.6c-1.1-0.9-1.2-2.5-0.3-3.5l9.7-11.5c0.9-1,2.5-1.2,3.5-0.3
							c1,0.9,1.2,2.5,0.3,3.5l-9.7,11.4C321.5,534.1,320.8,534.4,320.1,534.4z"/>
					</g>
					<g>
						<path class="st5" d="M319.7,534.4c-8.4,0-20.1-6.9-33.1-19.6c-3.7-3.6-7.4-7.6-11-11.8c-8-9.4-15.4-19.9-22.3-31.2
							c-2.6-4.3-5.2-9-7.7-13.7c-5.8-11.3-10.7-22.7-14.5-34.1c-1.5-4.6-2.9-9.2-4.1-13.8c-3.3-12.8-5.2-25.3-5.7-37.4
							c-0.3-6.5-0.1-12.9,0.5-19.2c1.2-12.6,4.1-24.8,8.7-36.1c2.2-5.3,4.7-10.5,7.6-15.5c6.3-10.9,14.5-21,24.3-30.1
							c1-0.9,2.6-0.9,3.5,0.1c0.9,1,0.9,2.6-0.1,3.5c-9.4,8.8-17.3,18.6-23.4,29c-2.8,4.7-5.2,9.7-7.3,14.8
							c-4.4,10.8-7.2,22.5-8.3,34.6c-0.6,6-0.7,12.3-0.5,18.6c0.5,11.7,2.3,23.9,5.6,36.3c1.2,4.5,2.5,9,4,13.5
							c3.7,11.1,8.5,22.3,14.2,33.4c2.4,4.7,5,9.2,7.5,13.4c6.7,11.1,14,21.4,21.8,30.6c3.6,4.2,7.1,8,10.7,11.5
							c11.9,11.6,23,18.4,29.9,18.2c1.4,0,2.5,1,2.6,2.4c0,1.4-1,2.5-2.4,2.6C320,534.4,319.8,534.4,319.7,534.4z"/>
					</g>
					<g>
						<path class="st5" d="M306.7,234.5c-0.3,0-0.6-0.1-0.9-0.2l-27.7-10.9c-1.3-0.5-1.9-2-1.4-3.2c0.5-1.3,2-1.9,3.2-1.4l27.7,10.9
							c1.3,0.5,1.9,2,1.4,3.2C308.7,233.9,307.7,234.5,306.7,234.5z"/>
					</g>
					<g>
						<path class="st5" d="M279.7,228.2c-1.2,0-2.3-0.9-2.5-2.2l-0.7-4.6c-0.2-1.4,0.8-2.6,2.1-2.8c1.4-0.2,2.6,0.8,2.8,2.1l0.7,4.6
							c0.2,1.4-0.8,2.6-2.1,2.8C279.9,228.2,279.8,228.2,279.7,228.2z"/>
					</g>
					<g>
						<path class="st5" d="M271.1,247c-1.2,0-2.4-0.1-3.7-0.4c-1.4-0.3-2.3-1.6-2-2.9c0.3-1.4,1.6-2.3,2.9-2c4.4,0.8,8-0.2,9.9-2.8
							c2.1-2.9,1.8-7.3-0.7-12c-0.7-1.2-0.2-2.7,1-3.4c1.2-0.7,2.7-0.2,3.4,1c3.5,6.5,3.6,12.8,0.4,17.3
							C279.8,245.2,275.8,247,271.1,247z"/>
					</g>
					<g>
						<path class="st5" d="M262.9,249c-0.9,0-1.8-0.5-2.3-1.4c-0.6-1.2-0.1-2.7,1.2-3.3l5-2.4c1.2-0.6,2.7-0.1,3.3,1.2
							c0.6,1.2,0.1,2.7-1.2,3.3l-5,2.4C263.6,249,263.2,249,262.9,249z"/>
					</g>
					<g>
						<path class="st5" d="M277.5,261.3c-0.6,0-1.1-0.2-1.6-0.6l-14.7-12.3c-1.1-0.9-1.2-2.5-0.3-3.5c0.9-1.1,2.5-1.2,3.5-0.3
							l14.6,12.3c1.1,0.9,1.2,2.5,0.3,3.5C278.9,261,278.2,261.3,277.5,261.3z"/>
					</g>
					<g>
						<path class="st5" d="M343.4,214.1c-0.9,0-1.7-0.5-2.2-1.3l-8.8-15.9c-0.7-1.2-0.2-2.7,1-3.4c1.2-0.7,2.7-0.2,3.4,1l8.8,15.9
							c0.7,1.2,0.2,2.7-1,3.4C344.2,214,343.8,214.1,343.4,214.1z"/>
					</g>
					<g>
						<path class="st5" d="M332.2,202.2c-0.4,0-0.9-0.1-1.3-0.4c-1.2-0.7-1.5-2.3-0.8-3.4l2.5-4c0.7-1.2,2.3-1.5,3.4-0.8
							c1.2,0.7,1.5,2.3,0.8,3.4l-2.5,4C333.8,201.8,333,202.2,332.2,202.2z"/>
					</g>
					<g>
						<path class="st5" d="M321,214.1c-4.1,0-8.3-2.2-11.7-6.2c-0.9-1.1-0.7-2.6,0.3-3.5c1.1-0.9,2.6-0.7,3.5,0.3
							c2.9,3.5,6.3,5,9.5,4.2c3.4-0.9,6.1-4.5,7.1-9.7c0.3-1.4,1.6-2.2,2.9-2c1.4,0.3,2.2,1.6,2,2.9c-1.4,7.2-5.4,12.2-10.8,13.6
							C322.9,214,322,214.1,321,214.1z"/>
					</g>
					<g>
						<path class="st5" d="M311.2,208.9c-0.2,0-0.4,0-0.6-0.1l-5.3-1.3c-1.3-0.3-2.2-1.7-1.8-3c0.3-1.3,1.7-2.2,3-1.8l5.3,1.3
							c1.3,0.3,2.2,1.7,1.8,3C313.4,208.1,312.4,208.9,311.2,208.9z"/>
					</g>
					<g>
						<path class="st5" d="M310.4,231.8c-1.2,0-2.2-0.8-2.5-2l-4.5-24.2c-0.2-1.4,0.6-2.7,2-2.9c1.4-0.3,2.7,0.6,2.9,2l4.5,24.2
							c0.2,1.4-0.6,2.7-2,2.9C310.7,231.7,310.5,231.8,310.4,231.8z"/>
					</g>
					<g>
						<path class="st5" d="M397.2,213.3c-1.2,0-2.2-0.8-2.4-2l-4.9-24.8c-0.3-1.4,0.6-2.7,2-2.9c1.4-0.3,2.7,0.6,2.9,2l4.9,24.8
							c0.3,1.4-0.6,2.7-2,2.9C397.5,213.2,397.3,213.3,397.2,213.3z"/>
					</g>
					<g>
						<path class="st5" d="M388.7,191.5c-0.7,0-1.4-0.3-1.9-0.9c-0.9-1-0.8-2.6,0.3-3.5l3.6-3.1c1-0.9,2.6-0.8,3.5,0.3
							c0.9,1,0.8,2.6-0.3,3.5l-3.6,3.1C389.8,191.3,389.3,191.5,388.7,191.5z"/>
					</g>
					<g>
						<path class="st5" d="M377.2,199.9c-0.2,0-0.5,0-0.7,0c-5.2-0.3-9.7-4-12.1-9.9c-0.5-1.3,0.1-2.7,1.4-3.3
							c1.3-0.5,2.7,0.1,3.3,1.4c1.7,4.2,4.5,6.6,7.7,6.8c3.5,0.2,7.2-2.5,9.7-7.1c0.7-1.2,2.2-1.7,3.4-1c1.2,0.7,1.7,2.2,1,3.4
							C387.5,196.4,382.5,199.9,377.2,199.9z"/>
					</g>
					<g>
						<path class="st5" d="M366.7,191.5c-0.4,0-0.9-0.1-1.3-0.4l-4.7-2.9c-1.2-0.7-1.5-2.3-0.8-3.4c0.7-1.2,2.3-1.5,3.4-0.8l4.7,2.9
							c1.2,0.7,1.5,2.3,0.8,3.4C368.4,191.1,367.6,191.5,366.7,191.5z"/>
					</g>
					<g>
						<path class="st5" d="M359.4,210c-0.1,0-0.2,0-0.3,0c-1.4-0.2-2.3-1.4-2.2-2.8l2.7-21.4c0.2-1.4,1.4-2.3,2.8-2.2
							c1.4,0.2,2.3,1.4,2.2,2.8l-2.7,21.4C361.7,209.1,360.6,210,359.4,210z"/>
					</g>
					<g>
						<path class="st5" d="M395.9,233.7c-0.1,0-0.1,0-0.2,0c-1.4-0.1-2.4-1.3-2.3-2.7l1.3-20.4c0.1-1.4,1.3-2.4,2.7-2.3
							c1.4,0.1,2.4,1.3,2.3,2.7l-1.3,20.4C398.3,232.7,397.2,233.7,395.9,233.7z"/>
					</g>
					<g>
						<path class="st5" d="M264,276.2c-0.6,0-1.2-0.2-1.6-0.6c-1-0.9-1.2-2.5-0.3-3.5c4.6-5.4,9.2-10.4,13.5-15
							c10.4-10.9,20-19.8,29.5-27.1c1.2-1,2.5-1.9,3.7-2.7c11.4-8.3,22.4-14.1,33.8-17.9c5.2-1.7,10.5-3,16.3-4
							c7.6-1.3,15.1-1.9,22.4-2.5c4.6-0.4,9.4-0.7,14.2-1.3c1.4-0.2,2.6,0.8,2.8,2.2c0.2,1.4-0.8,2.6-2.2,2.8
							c-4.9,0.6-9.7,0.9-14.4,1.3c-7.5,0.6-14.5,1.1-21.9,2.4c-5.6,1-10.7,2.2-15.6,3.8c-10.8,3.6-21.4,9.2-32.4,17.2
							c-1.2,0.9-2.4,1.7-3.6,2.7c-9.2,7.1-18.9,16-28.9,26.6c-4.3,4.5-8.8,9.5-13.4,14.9C265.4,275.9,264.8,276.2,264,276.2z"/>
					</g>
					<g>
						<path class="st5" d="M377.7,195.7c-5.7,0-10.3-4.6-10.3-10.3c0-5.7,4.6-10.3,10.3-10.3c5.7,0,10.3,4.6,10.3,10.3
							C388,191.1,383.4,195.7,377.7,195.7z M377.7,180.1c-2.9,0-5.3,2.4-5.3,5.3c0,2.9,2.4,5.3,5.3,5.3c2.9,0,5.3-2.4,5.3-5.3
							C383,182.4,380.6,180.1,377.7,180.1z"/>
					</g>
					<g>
						<path class="st5" d="M320.1,210c-5.7,0-10.3-4.6-10.3-10.3c0-5.7,4.6-10.3,10.3-10.3c5.7,0,10.3,4.6,10.3,10.3
							C330.4,205.4,325.8,210,320.1,210z M320.1,194.4c-2.9,0-5.3,2.4-5.3,5.3c0,2.9,2.4,5.3,5.3,5.3c2.9,0,5.3-2.4,5.3-5.3
							C325.4,196.8,323,194.4,320.1,194.4z"/>
					</g>
					<g>
						<path class="st5" d="M270.2,243.8c-5.7,0-10.3-4.6-10.3-10.3c0-5.7,4.6-10.3,10.3-10.3c5.7,0,10.3,4.6,10.3,10.3
							C280.5,239.2,275.9,243.8,270.2,243.8z M270.2,228.2c-2.9,0-5.3,2.4-5.3,5.3c0,2.9,2.4,5.3,5.3,5.3c2.9,0,5.3-2.4,5.3-5.3
							C275.5,230.6,273.1,228.2,270.2,228.2z"/>
					</g>
					<g>
						<path class="st5" d="M231.5,285.8c-5.7,0-10.3-4.6-10.3-10.3c0-5.7,4.6-10.3,10.3-10.3c5.7,0,10.3,4.6,10.3,10.3
							C241.8,281.2,237.2,285.8,231.5,285.8z M231.5,270.2c-2.9,0-5.3,2.4-5.3,5.3c0,2.9,2.4,5.3,5.3,5.3c2.9,0,5.3-2.4,5.3-5.3
							C236.8,272.5,234.4,270.2,231.5,270.2z"/>
					</g>
					<g>
						<path class="st5" d="M208.7,343.5c-5.7,0-10.3-4.6-10.3-10.3c0-5.7,4.6-10.3,10.3-10.3c5.7,0,10.3,4.6,10.3,10.3
							C219,338.8,214.4,343.5,208.7,343.5z M208.7,327.8c-2.9,0-5.3,2.4-5.3,5.3c0,2.9,2.4,5.3,5.3,5.3c2.9,0,5.3-2.4,5.3-5.3
							C214,330.2,211.7,327.8,208.7,327.8z"/>
					</g>
					<g>
						<path class="st5" d="M203.6,402.9c-5.7,0-10.3-4.6-10.3-10.3c0-5.7,4.6-10.3,10.3-10.3c5.7,0,10.3,4.6,10.3,10.3
							C213.9,398.3,209.3,402.9,203.6,402.9z M203.6,387.3c-2.9,0-5.3,2.4-5.3,5.3c0,2.9,2.4,5.3,5.3,5.3c2.9,0,5.3-2.4,5.3-5.3
							C208.9,389.6,206.5,387.3,203.6,387.3z"/>
					</g>
					<g>
						<path class="st5" d="M222.6,457.7c-5.7,0-10.3-4.6-10.3-10.3c0-5.7,4.6-10.3,10.3-10.3c5.7,0,10.3,4.6,10.3,10.3
							C233,453,228.3,457.7,222.6,457.7z M222.6,442c-2.9,0-5.3,2.4-5.3,5.3c0,2.9,2.4,5.3,5.3,5.3c2.9,0,5.3-2.4,5.3-5.3
							C228,444.4,225.6,442,222.6,442z"/>
					</g>
					<g>
						<path class="st5" d="M247.6,512.4c-5.7,0-10.3-4.6-10.3-10.3c0-5.7,4.6-10.3,10.3-10.3c5.7,0,10.3,4.6,10.3,10.3
							C257.9,507.7,253.3,512.4,247.6,512.4z M247.6,496.7c-2.9,0-5.3,2.4-5.3,5.3c0,2.9,2.4,5.3,5.3,5.3c2.9,0,5.3-2.4,5.3-5.3
							C252.9,499.1,250.5,496.7,247.6,496.7z"/>
					</g>
					<g>
						<path class="st5" d="M292.9,550.5c-5.7,0-10.3-4.6-10.3-10.3c0-5.7,4.6-10.3,10.3-10.3c5.7,0,10.3,4.6,10.3,10.3
							C303.2,545.9,298.6,550.5,292.9,550.5z M292.9,534.9c-2.9,0-5.3,2.4-5.3,5.3c0,2.9,2.4,5.3,5.3,5.3c2.9,0,5.3-2.4,5.3-5.3
							C298.2,537.3,295.8,534.9,292.9,534.9z"/>
					</g>
					<g>
						<path class="st5" d="M365.7,167.5c-0.9,0-1.7-0.5-2.2-1.3l-8.1-14.7c-0.7-1.2-0.2-2.7,1-3.4c1.2-0.7,2.7-0.2,3.4,1l8.1,14.7
							c0.7,1.2,0.2,2.7-1,3.4C366.5,167.4,366.1,167.5,365.7,167.5z"/>
					</g>
					<g>
						<path class="st5" d="M357.6,152.8c-1.3,0-2.4-1-2.5-2.3l-10-133.1c-0.1-1.4,0.9-2.6,2.3-2.7c1.4-0.1,2.6,0.9,2.7,2.3l10,133.1
							c0.1,1.4-0.9,2.6-2.3,2.7C357.7,152.8,357.7,152.8,357.6,152.8z"/>
					</g>
					<g>
						<path class="st5" d="M347.6,19.6c-1.2,0-2.3-0.9-2.5-2.2c-0.2-1.4,0.8-2.6,2.2-2.8l10.7-1.4c1.4-0.2,2.6,0.8,2.8,2.2
							s-0.8,2.6-2.2,2.8l-10.7,1.4C347.8,19.6,347.7,19.6,347.6,19.6z"/>
					</g>
					<g>
						<path class="st5" d="M383.8,147.4c-1.2,0-2.2-0.8-2.4-2L355.8,16.2c-0.3-1.4,0.6-2.7,2-2.9c1.4-0.3,2.7,0.6,2.9,2l25.6,129.1
							c0.3,1.4-0.6,2.7-2,2.9C384.2,147.4,384,147.4,383.8,147.4z"/>
					</g>
					<g>
						<path class="st5" d="M380.9,165.2c-0.1,0-0.3,0-0.4,0c-1.4-0.2-2.3-1.5-2.1-2.9l2.9-17.9c0.2-1.4,1.5-2.3,2.9-2.1
							c1.4,0.2,2.3,1.5,2.1,2.9l-2.9,17.9C383.2,164.3,382.1,165.2,380.9,165.2z"/>
					</g>
					<g>
						<path class="st5" d="M365.7,167.5c-1.2,0-2.3-0.9-2.5-2.1c-0.2-1.4,0.7-2.6,2.1-2.8l15.2-2.3c1.4-0.2,2.6,0.7,2.8,2.1
							c0.2,1.4-0.7,2.6-2.1,2.8l-15.2,2.3C366,167.5,365.8,167.5,365.7,167.5z"/>
					</g>
					<g>
						<path class="st5" d="M306.7,192.1c-0.6,0-1.2-0.2-1.7-0.7l-12.3-11.4c-1-0.9-1.1-2.5-0.1-3.5c0.9-1,2.5-1.1,3.5-0.1l12.3,11.4
							c1,0.9,1.1,2.5,0.1,3.5C308.1,191.9,307.4,192.1,306.7,192.1z"/>
					</g>
					<g>
						<path class="st5" d="M294.4,180.7c-1,0-1.9-0.6-2.3-1.5L240.5,56.1c-0.5-1.3,0.1-2.7,1.3-3.3c1.3-0.5,2.7,0.1,3.3,1.3
							l51.6,123.1c0.5,1.3-0.1,2.7-1.3,3.3C295,180.7,294.7,180.7,294.4,180.7z"/>
					</g>
					<g>
						<path class="st5" d="M242.8,57.6c-0.9,0-1.8-0.5-2.2-1.4c-0.6-1.2-0.1-2.7,1.2-3.3l9.7-4.7c1.2-0.6,2.7-0.1,3.3,1.2
							s0.1,2.7-1.2,3.3l-9.7,4.7C243.5,57.5,243.1,57.6,242.8,57.6z"/>
					</g>
					<g>
						<path class="st5" d="M317.6,167.3c-0.9,0-1.7-0.5-2.2-1.3L250.3,51.6c-0.7-1.2-0.3-2.7,0.9-3.4c1.2-0.7,2.7-0.3,3.4,0.9
							l65.1,114.4c0.7,1.2,0.3,2.7-0.9,3.4C318.4,167.2,318,167.3,317.6,167.3z"/>
					</g>
					<g>
						<path class="st5" d="M320.4,185.2c-1.2,0-2.3-0.9-2.5-2.1l-2.9-17.9c-0.2-1.4,0.7-2.6,2.1-2.9c1.4-0.2,2.6,0.7,2.9,2.1
							l2.9,17.9c0.2,1.4-0.7,2.6-2.1,2.9C320.7,185.2,320.6,185.2,320.4,185.2z"/>
					</g>
					<g>
						<path class="st5" d="M306.7,192.1c-0.9,0-1.8-0.5-2.2-1.4c-0.6-1.2-0.1-2.7,1.1-3.4l13.7-7c1.2-0.6,2.7-0.1,3.4,1.1
							c0.6,1.2,0.1,2.7-1.1,3.4l-13.7,7C307.5,192,307.1,192.1,306.7,192.1z"/>
					</g>
					<g>
						<path class="st5" d="M256.7,228.9c-0.4,0-0.8-0.1-1.1-0.3l-14.3-7.1c-1.2-0.6-1.7-2.1-1.1-3.4c0.6-1.2,2.1-1.7,3.4-1.1
							l14.3,7.1c1.2,0.6,1.7,2.1,1.1,3.4C258.5,228.4,257.7,228.9,256.7,228.9z"/>
					</g>
					<g>
						<path class="st5" d="M242.5,221.8c-0.7,0-1.5-0.3-1.9-0.9l-79.6-98.5c-0.9-1.1-0.7-2.6,0.4-3.5c1.1-0.9,2.6-0.7,3.5,0.4
							l79.6,98.5c0.9,1.1,0.7,2.6-0.4,3.5C243.6,221.6,243,221.8,242.5,221.8z"/>
					</g>
					<g>
						<path class="st5" d="M162.8,123.3c-0.7,0-1.4-0.3-1.9-0.8c-0.9-1-0.9-2.6,0.2-3.5l7.6-6.9c1-0.9,2.6-0.9,3.5,0.2
							c0.9,1,0.9,2.6-0.2,3.5l-7.6,6.9C164,123.1,163.4,123.3,162.8,123.3z"/>
					</g>
					<g>
						<path class="st5" d="M260,203.4c-0.6,0-1.3-0.2-1.7-0.7l-89.6-87c-1-1-1-2.5-0.1-3.5c1-1,2.5-1,3.5-0.1l89.6,87
							c1,1,1,2.5,0.1,3.5C261.3,203.1,260.7,203.4,260,203.4z"/>
					</g>
					<g>
						<path class="st5" d="M267.4,218.9c-0.9,0-1.8-0.5-2.3-1.4l-7.4-15.5c-0.6-1.2-0.1-2.7,1.2-3.3c1.2-0.6,2.7-0.1,3.3,1.2
							l7.4,15.5c0.6,1.2,0.1,2.7-1.2,3.3C268.1,218.8,267.8,218.9,267.4,218.9z"/>
					</g>
					<g>
						<path class="st5" d="M256.7,228.9c-0.7,0-1.3-0.3-1.8-0.8c-0.9-1-0.9-2.6,0.1-3.5l10.6-10c1-0.9,2.6-0.9,3.5,0.1
							c0.9,1,0.9,2.6-0.1,3.5l-10.6,10C258,228.7,257.4,228.9,256.7,228.9z"/>
					</g>
					<g>
						<path class="st5" d="M218.2,275.7c-0.2,0-0.3,0-0.5-0.1l-13.9-2.8c-1.4-0.3-2.2-1.6-2-2.9c0.3-1.4,1.6-2.2,2.9-2l13.9,2.8
							c1.4,0.3,2.2,1.6,2,2.9C220.4,274.8,219.4,275.7,218.2,275.7z"/>
					</g>
					<g>
						<path class="st5" d="M204.3,272.8c-0.5,0-1-0.1-1.4-0.5l-91.5-64.8c-1.1-0.8-1.4-2.4-0.6-3.5s2.4-1.4,3.5-0.6l91.5,64.8
							c1.1,0.8,1.4,2.4,0.6,3.5C205.8,272.5,205.1,272.8,204.3,272.8z"/>
					</g>
					<g>
						<path class="st5" d="M112.7,208c-0.5,0-0.9-0.1-1.4-0.4c-1.2-0.8-1.5-2.3-0.7-3.5l4.9-7.4c0.8-1.2,2.3-1.5,3.5-0.7
							c1.2,0.8,1.5,2.3,0.7,3.5l-4.9,7.4C114.3,207.6,113.6,208,112.7,208z"/>
					</g>
					<g>
						<path class="st5" d="M215,253.7c-0.4,0-0.8-0.1-1.2-0.3l-97.4-53c-1.2-0.7-1.7-2.2-1-3.4c0.7-1.2,2.2-1.7,3.4-1l97.4,53
							c1.2,0.7,1.7,2.2,1,3.4C216.7,253.2,215.9,253.7,215,253.7z"/>
					</g>
					<g>
						<path class="st5" d="M225,265c-0.7,0-1.4-0.3-1.9-0.8l-10-11.3c-0.9-1-0.8-2.6,0.2-3.5c1-0.9,2.6-0.8,3.5,0.2l10,11.3
							c0.9,1,0.8,2.6-0.2,3.5C226.1,264.8,225.6,265,225,265z"/>
					</g>
					<g>
						<path class="st5" d="M218.2,275.7c-0.5,0-0.9-0.1-1.3-0.4c-1.2-0.7-1.5-2.3-0.8-3.5l6.8-10.6c0.7-1.2,2.3-1.5,3.5-0.8
							c1.2,0.7,1.5,2.3,0.8,3.5l-6.8,10.6C219.8,275.2,219,275.7,218.2,275.7z"/>
					</g>
					<g>
						<path class="st5" d="M184.4,339c-1.2,0-2.2-0.8-2.5-2c-0.2-1.4,0.6-2.7,2-2.9l11.7-2.1c1.4-0.2,2.7,0.6,2.9,2
							c0.2,1.4-0.6,2.7-2,2.9l-11.7,2.1C184.7,339,184.5,339,184.4,339z"/>
					</g>
					<g>
						<path class="st5" d="M184.4,339c-0.2,0-0.4,0-0.6-0.1l-91.2-21.7c-1.3-0.3-2.2-1.7-1.9-3c0.3-1.3,1.7-2.2,3-1.9l91.2,21.7
							c1.3,0.3,2.2,1.7,1.9,3C186.5,338.2,185.5,339,184.4,339z"/>
					</g>
					<g>
						<path class="st5" d="M93.2,317.3c-0.2,0-0.3,0-0.5-0.1c-1.4-0.3-2.2-1.6-2-2.9l1.5-7.2c0.3-1.4,1.6-2.2,2.9-2
							c1.4,0.3,2.2,1.6,2,2.9l-1.5,7.2C95.4,316.5,94.3,317.3,93.2,317.3z"/>
					</g>
					<g>
						<path class="st5" d="M186.7,320.8c-0.1,0-0.2,0-0.3,0L94.3,310c-1.4-0.2-2.4-1.4-2.2-2.8c0.2-1.4,1.4-2.4,2.8-2.2l92.1,10.7
							c1.4,0.2,2.4,1.4,2.2,2.8C189,319.8,187.9,320.8,186.7,320.8z"/>
					</g>
					<g>
						<path class="st5" d="M198,326.5c-0.4,0-0.8-0.1-1.1-0.3l-11.3-5.7c-1.2-0.6-1.7-2.1-1.1-3.4c0.6-1.2,2.1-1.7,3.4-1.1l11.3,5.7
							c1.2,0.6,1.7,2.1,1.1,3.4C199.8,326,198.9,326.5,198,326.5z"/>
					</g>
					<g>
						<path class="st5" d="M196,336.8c-0.2,0-0.3,0-0.5,0c-1.4-0.3-2.3-1.6-2-2.9l1.9-10.4c0.3-1.4,1.6-2.3,2.9-2
							c1.4,0.3,2.3,1.6,2,2.9l-1.9,10.4C198.3,336,197.2,336.8,196,336.8z"/>
					</g>
					<g>
						<path class="st5" d="M185.3,406.2c-0.8,0-1.7-0.4-2.1-1.2c-0.7-1.2-0.3-2.7,0.8-3.4l7.1-4.3c1.2-0.7,2.7-0.3,3.4,0.8
							c0.7,1.2,0.3,2.7-0.8,3.4l-7.1,4.3C186.2,406,185.8,406.2,185.3,406.2z"/>
					</g>
					<g>
						<path class="st5" d="M120,414.6c-1.2,0-2.3-0.9-2.5-2.2c-0.2-1.4,0.8-2.6,2.2-2.8l65.3-8.5c1.4-0.2,2.6,0.8,2.8,2.2
							c0.2,1.4-0.8,2.6-2.2,2.8l-65.3,8.5C120.2,414.6,120.1,414.6,120,414.6z"/>
					</g>
					<g>
						<path class="st5" d="M120,414.6c-1.2,0-2.3-0.9-2.5-2.1l-0.8-5.1c-0.2-1.4,0.7-2.6,2.1-2.9c1.4-0.2,2.6,0.7,2.9,2.1l0.8,5.1
							c0.2,1.4-0.7,2.6-2.1,2.9C120.3,414.6,120.1,414.6,120,414.6z"/>
					</g>
					<g>
						<path class="st5" d="M119.2,409.5c-1.1,0-2.1-0.8-2.4-1.9c-0.3-1.3,0.5-2.7,1.8-3l63.2-15.9c1.3-0.3,2.7,0.5,3,1.8
							c0.3,1.3-0.5,2.7-1.8,3l-63.2,15.9C119.6,409.5,119.4,409.5,119.2,409.5z"/>
					</g>
					<g>
						<path class="st5" d="M191.2,394.5c-0.1,0-0.2,0-0.3,0l-8.8-0.9c-1.4-0.1-2.4-1.4-2.2-2.7s1.4-2.4,2.7-2.2l8.8,0.9
							c1.4,0.1,2.4,1.4,2.2,2.7C193.5,393.6,192.4,394.5,191.2,394.5z"/>
					</g>
					<g>
						<path class="st5" d="M192.5,401.9c-1.2,0-2.2-0.8-2.5-2.1l-1.3-7.3c-0.2-1.4,0.7-2.7,2-2.9c1.4-0.2,2.7,0.7,2.9,2l1.3,7.3
							c0.2,1.4-0.7,2.7-2,2.9C192.8,401.8,192.6,401.9,192.5,401.9z"/>
					</g>
					<g>
						<path class="st5" d="M210.5,462.6c-0.6,0-1.2-0.2-1.7-0.7c-1-0.9-1.1-2.5-0.1-3.5l4.5-4.8c0.9-1,2.5-1.1,3.5-0.1
							c1,0.9,1.1,2.5,0.1,3.5l-4.5,4.8C211.9,462.3,211.2,462.6,210.5,462.6z"/>
					</g>
					<g>
						<path class="st5" d="M162.2,483.2c-1,0-1.9-0.6-2.3-1.5c-0.5-1.3,0.1-2.7,1.3-3.3l48.4-20.6c1.3-0.5,2.7,0,3.3,1.3
							c0.5,1.3-0.1,2.7-1.3,3.3L163.1,483C162.8,483.1,162.5,483.2,162.2,483.2z"/>
					</g>
					<g>
						<path class="st5" d="M162.2,483.2c-0.9,0-1.8-0.5-2.3-1.4l-1.8-3.8c-0.6-1.3,0-2.7,1.2-3.3c1.3-0.6,2.7,0,3.3,1.2l1.8,3.8
							c0.6,1.3,0,2.7-1.2,3.3C162.9,483.1,162.5,483.2,162.2,483.2z"/>
					</g>
					<g>
						<path class="st5" d="M160.4,479.4c-0.9,0-1.7-0.5-2.2-1.3c-0.7-1.2-0.3-2.7,0.9-3.4l45.1-25.8c1.2-0.7,2.7-0.3,3.4,0.9
							c0.7,1.2,0.3,2.7-0.9,3.4l-45.1,25.8C161.3,479.3,160.8,479.4,160.4,479.4z"/>
					</g>
					<g>
						<path class="st5" d="M205.5,453.6c-1.2,0-2.3-0.9-2.5-2.1c-0.2-1.4,0.7-2.7,2-2.9l7-1.2c1.4-0.2,2.7,0.7,2.9,2s-0.7,2.7-2,2.9
							l-7,1.2C205.8,453.6,205.6,453.6,205.5,453.6z"/>
					</g>
					<g>
						<path class="st5" d="M215.1,457.7c-0.9,0-1.8-0.5-2.3-1.4l-2.6-5.3c-0.6-1.2-0.1-2.7,1.2-3.3c1.2-0.6,2.7-0.1,3.3,1.2l2.6,5.3
							c0.6,1.2,0.1,2.7-1.2,3.3C215.8,457.6,215.4,457.7,215.1,457.7z"/>
					</g>
					<g>
						<path class="st5" d="M237.9,516.2c-0.5,0-1-0.1-1.4-0.4c-1.2-0.8-1.5-2.3-0.7-3.5l2.2-3.3c0.8-1.2,2.3-1.5,3.5-0.7
							c1.2,0.8,1.5,2.3,0.7,3.5l-2.2,3.3C239.5,515.9,238.7,516.2,237.9,516.2z"/>
					</g>
					<g>
						<path class="st5" d="M211.4,533c-0.8,0-1.6-0.4-2.1-1.2c-0.7-1.2-0.4-2.7,0.8-3.4l26.5-16.7c1.2-0.7,2.7-0.4,3.4,0.8
							s0.4,2.7-0.8,3.4l-26.5,16.7C212.3,532.8,211.8,533,211.4,533z"/>
					</g>
					<g>
						<path class="st5" d="M211.4,533c-0.8,0-1.6-0.4-2-1.1l-1.4-2c-0.8-1.1-0.5-2.7,0.6-3.5c1.1-0.8,2.7-0.5,3.5,0.6l1.4,2
							c0.8,1.1,0.5,2.7-0.6,3.5C212.4,532.8,211.9,533,211.4,533z"/>
					</g>
					<g>
						<path class="st5" d="M209.9,530.9c-0.7,0-1.4-0.3-1.9-0.9c-0.9-1.1-0.7-2.6,0.4-3.5l24-19.5c1.1-0.9,2.6-0.7,3.5,0.4
							c0.9,1.1,0.7,2.6-0.4,3.5l-24,19.5C211,530.7,210.5,530.9,209.9,530.9z"/>
					</g>
					<g>
						<path class="st5" d="M233.9,511.4c-1,0-2-0.7-2.4-1.7c-0.4-1.3,0.3-2.7,1.6-3.2l4-1.4c1.3-0.4,2.7,0.3,3.2,1.6
							c0.4,1.3-0.3,2.7-1.6,3.2l-4,1.4C234.4,511.4,234.2,511.4,233.9,511.4z"/>
					</g>
					<g>
						<path class="st5" d="M240,513c-0.8,0-1.5-0.4-2-1l-2.1-2.9c-0.8-1.1-0.6-2.7,0.5-3.5c1.1-0.8,2.7-0.6,3.5,0.5l2.1,2.9
							c0.8,1.1,0.6,2.7-0.5,3.5C241.1,512.8,240.6,513,240,513z"/>
					</g>
					<g>
						<path class="st5" d="M295.5,584.8c-1.3,0-2.5-1.1-2.5-2.4c0-1.4,1-2.5,2.4-2.6l32.6-1c1.4,0,2.5,1,2.6,2.4s-1,2.5-2.4,2.6
							L295.5,584.8C295.5,584.8,295.5,584.8,295.5,584.8z"/>
					</g>
					<g>
						<path class="st5" d="M329.7,641.4c-0.2,0-0.5,0-0.8-0.1c-1.3-0.4-2-1.8-1.6-3.1l8-25.3c0.4-1.3,1.8-2,3.1-1.6
							c1.3,0.4,2,1.8,1.6,3.1l-8,25.3C331.8,640.7,330.8,641.4,329.7,641.4z"/>
					</g>
					<g>
						<path class="st5" d="M362,672.2c-0.6,0-1.2-0.2-1.6-0.6c-2.4-2.1-4.9-4.2-7.4-6.4c-8.1-6.9-17.2-14.7-25.8-23.8
							c-16.5-17.5-27.2-35.5-33.5-56.6h0l-0.5-1.8c-2.4-8.4-4.1-17.3-5-26.5c-0.1-1.4,0.9-2.6,2.2-2.7c1.4-0.1,2.6,0.9,2.7,2.2
							c0.9,8.5,2.4,16.8,4.5,24.6l0.3,1c6,21.1,16.4,39,32.8,56.4c8.5,9,17.5,16.7,25.5,23.5c2.6,2.2,5.1,4.3,7.5,6.4
							c1,0.9,1.1,2.5,0.2,3.5C363.4,672,362.7,672.2,362,672.2z"/>
					</g>
					<g>
						<path class="st5" d="M290.6,558.7c-0.2,0-0.4,0-0.6-0.1l-11-2.9c-1.3-0.4-2.1-1.7-1.8-3.1c0.4-1.3,1.7-2.1,3.1-1.8l11,2.9
							c1.3,0.4,2.1,1.7,1.8,3.1C292.7,558,291.7,558.7,290.6,558.7z"/>
					</g>
					<g>
						<path class="st5" d="M270.2,565.5c-0.6,0-1.3-0.2-1.8-0.7c-1-1-1-2.5,0-3.5l9.4-9.6c1-1,2.5-1,3.5,0c1,1,1,2.5,0,3.5l-9.4,9.6
							C271.5,565.2,270.8,565.5,270.2,565.5z"/>
					</g>
					<g>
						<path class="st5" d="M358.8,682c-0.5,0-1-0.2-1.5-0.5c-0.7-0.5-1.4-1-2.1-1.6c-2.9-2.2-5.9-4.4-8.7-6.6
							c-6-4.7-11.3-9.2-16.5-13.9c-2.7-2.5-5.5-5.1-8.1-7.7c-4.6-4.7-9.1-9.5-13.2-14.4c-2.1-2.6-4.2-5.2-6.5-8.2
							c-3.6-4.7-7-9.8-10.3-14.9c-2-3.2-3.9-6.4-5.7-9.6c-3.3-5.9-6.5-12.3-9.6-18.9c-1.5-3.3-3-6.7-4.5-10.3
							c-1.6-3.8-3.1-7.7-4.6-11.6c-0.5-1.3,0.2-2.7,1.5-3.2c1.3-0.5,2.7,0.2,3.2,1.5c1.4,3.8,2.9,7.7,4.5,11.5
							c1.4,3.5,2.9,6.9,4.4,10.1c3,6.5,6.1,12.7,9.4,18.5c1.7,3.1,3.6,6.2,5.6,9.4c3.2,5.1,6.5,10,10,14.6c2.2,2.9,4.3,5.5,6.3,8
							c4,4.8,8.3,9.5,12.9,14.1c2.5,2.6,5.2,5.1,7.9,7.6c5,4.6,10.3,9.1,16.2,13.7c2.8,2.2,5.7,4.4,8.6,6.5c0.7,0.5,1.4,1,2.1,1.5
							c1.1,0.8,1.4,2.4,0.5,3.5C360.4,681.7,359.6,682,358.8,682z"/>
					</g>
					<g>
						<path class="st5" d="M358.8,682.1c-0.3,0-0.5,0-0.8-0.1c-1.3-0.4-2-1.8-1.6-3.1l3.2-9.8c0.4-1.3,1.8-2,3.1-1.6
							c1.3,0.4,2,1.8,1.6,3.1l-3.2,9.8C360.9,681.4,359.9,682.1,358.8,682.1z"/>
					</g>
					<g>
						<path class="st5" d="M277,587.7c-4.5,0-8.1-3.6-8.1-8.1c0-3.2,1.9-6.1,4.8-7.4c1-0.5,2.1-0.7,3.3-0.7c4.5,0,8.1,3.6,8.1,8.1
							c0,3.2-1.9,6.2-4.9,7.4C279.1,587.4,278.1,587.7,277,587.7z M277,576.5c-0.4,0-0.8,0.1-1.2,0.3l0,0c-1.1,0.5-1.8,1.6-1.8,2.8
							c0,1.7,1.4,3.1,3.1,3.1c0.4,0,0.8-0.1,1.2-0.2c1.1-0.5,1.9-1.6,1.9-2.8C280.1,577.9,278.7,576.5,277,576.5z M274.7,574.5
							L274.7,574.5L274.7,574.5z"/>
					</g>
					<g>
						<path class="st5" d="M290.7,616.6c-4.5,0-8.1-3.6-8.1-8.1c0-3.3,2-6.2,5-7.5c0.9-0.4,2-0.6,3-0.6c4.4,0,8.1,3.6,8.1,8.1
							c0,2.4-1.1,4.7-2.9,6.2C294.4,616,292.6,616.6,290.7,616.6z M290.7,605.5c-0.4,0-0.8,0.1-1.1,0.2l0,0
							c-1.2,0.5-1.9,1.6-1.9,2.8c0,1.7,1.4,3.1,3.1,3.1c0.7,0,1.4-0.2,1.9-0.7c0.7-0.6,1.1-1.5,1.1-2.4
							C293.8,606.9,292.4,605.5,290.7,605.5z M288.6,603.4L288.6,603.4L288.6,603.4z"/>
					</g>
					<g>
						<path class="st5" d="M306,641c-4.4,0-8.1-3.6-8.1-8.1c0-3.6,2.4-6.7,5.8-7.7c0.7-0.2,1.5-0.3,2.3-0.3c4.5,0,8.1,3.6,8.1,8.1
							c0,1.4-0.4,2.8-1.1,4C311.5,639.5,308.9,641,306,641z M306,629.9c-0.3,0-0.6,0-0.8,0.1l0,0c-1.3,0.4-2.2,1.6-2.2,2.9
							c0,1.7,1.4,3.1,3.1,3.1c1.1,0,2.1-0.6,2.7-1.5c0.3-0.5,0.4-1,0.4-1.5C309,631.3,307.7,629.9,306,629.9z M304.4,627.6
							L304.4,627.6L304.4,627.6z"/>
					</g>
					<g>
						<path class="st5" d="M327.3,662.4c-4.4,0-8.1-3.6-8.1-8.1c0-2.4,1.1-4.7,3-6.3c1.4-1.2,3.2-1.8,5.1-1.8c4.4,0,8.1,3.6,8.1,8.1
							c0,1.8-0.6,3.4-1.6,4.8C332.3,661.1,329.9,662.4,327.3,662.4z M327.3,651.2c-0.7,0-1.4,0.2-1.9,0.7l0,0
							c-0.7,0.6-1.1,1.5-1.1,2.4c0,1.7,1.4,3.1,3.1,3.1c1,0,1.9-0.5,2.4-1.2c0.4-0.6,0.6-1.2,0.6-1.8
							C330.4,652.6,329,651.2,327.3,651.2z M323.8,650L323.8,650L323.8,650z"/>
					</g>
					<g>
						<path class="st5" d="M351.7,683.7c-4.5,0-8.1-3.6-8.1-8.1c0-2.4,1-4.6,2.8-6.1c1.4-1.3,3.3-2,5.3-2c4.4,0,8.1,3.6,8.1,8.1
							c0,1.2-0.3,2.4-0.8,3.4C357.7,681.9,354.8,683.7,351.7,683.7z M351.7,672.6c-0.7,0-1.4,0.3-2,0.7l-0.1,0
							c-0.7,0.6-1.1,1.4-1.1,2.3c0,1.7,1.4,3.1,3.1,3.1c1.2,0,2.3-0.7,2.8-1.8c0.2-0.4,0.3-0.8,0.3-1.3
							C354.8,673.9,353.4,672.6,351.7,672.6z M348.1,671.4L348.1,671.4L348.1,671.4z"/>
					</g>
					<g>
						<path class="st5" d="M263.8,594.7c-0.6,0-1.1-0.2-1.6-0.6c-1.1-0.9-1.2-2.5-0.3-3.5l5.4-6.4c0.9-1.1,2.5-1.2,3.5-0.3
							c1.1,0.9,1.2,2.5,0.3,3.5l-5.4,6.4C265.2,594.4,264.5,594.7,263.8,594.7z"/>
					</g>
					<g>
						<path class="st5" d="M204.5,623.4c-0.9,0-1.8-0.5-2.3-1.4c-0.6-1.2-0.1-2.7,1.2-3.3l59.3-28.7c1.2-0.6,2.7-0.1,3.3,1.2
							c0.6,1.2,0.1,2.7-1.2,3.3l-59.3,28.7C205.2,623.3,204.9,623.4,204.5,623.4z"/>
					</g>
					<g>
						<path class="st5" d="M204.5,623.4c-0.9,0-1.8-0.5-2.2-1.3l-2.4-4.6c-0.6-1.2-0.2-2.7,1.1-3.4c1.2-0.6,2.7-0.2,3.4,1.1l2.4,4.6
							c0.6,1.2,0.2,2.7-1.1,3.4C205.3,623.3,204.9,623.4,204.5,623.4z"/>
					</g>
					<g>
						<path class="st5" d="M202.1,618.8c-0.8,0-1.6-0.4-2.1-1.2c-0.7-1.2-0.4-2.7,0.8-3.5l54.9-35.1c1.2-0.7,2.7-0.4,3.5,0.8
							s0.4,2.7-0.8,3.5l-54.9,35.1C203,618.7,202.6,618.8,202.1,618.8z"/>
					</g>
					<g>
						<path class="st5" d="M257,583.7c-1.1,0-2.2-0.8-2.4-2c-0.3-1.3,0.6-2.7,1.9-3l8.7-1.9c1.4-0.3,2.7,0.6,3,1.9
							c0.3,1.3-0.6,2.7-1.9,3l-8.7,1.9C257.3,583.7,257.1,583.7,257,583.7z"/>
					</g>
					<g>
						<path class="st5" d="M269.2,588.3c-0.9,0-1.7-0.5-2.2-1.3l-3.6-6.5c-0.7-1.2-0.2-2.7,1-3.4c1.2-0.7,2.7-0.2,3.4,1l3.6,6.5
							c0.7,1.2,0.2,2.7-1,3.4C270,588.2,269.6,588.3,269.2,588.3z"/>
					</g>
					<g>
						<path class="st5" d="M280.3,623.8c-0.5,0-1-0.2-1.5-0.5c-1.1-0.8-1.4-2.4-0.6-3.5l3.9-5.4c0.8-1.1,2.4-1.4,3.5-0.6
							s1.4,2.4,0.6,3.5l-3.9,5.4C281.9,623.4,281.1,623.8,280.3,623.8z"/>
					</g>
					<g>
						<path class="st5" d="M235,650.4c-0.9,0-1.7-0.4-2.2-1.2c-0.7-1.2-0.3-2.7,0.9-3.4l45.3-26.6c1.2-0.7,2.7-0.3,3.4,0.9
							s0.3,2.7-0.9,3.4l-45.3,26.6C235.9,650.3,235.4,650.4,235,650.4z"/>
					</g>
					<g>
						<path class="st5" d="M235,650.4c-0.8,0-1.6-0.4-2.1-1.2l-2.2-3.5c-0.7-1.2-0.4-2.7,0.8-3.5c1.2-0.7,2.7-0.4,3.5,0.8l2.2,3.5
							c0.7,1.2,0.4,2.7-0.8,3.5C235.9,650.3,235.5,650.4,235,650.4z"/>
					</g>
					<g>
						<path class="st5" d="M232.8,646.9c-0.8,0-1.5-0.3-2-1c-0.8-1.1-0.6-2.7,0.5-3.5l41.4-31.4c1.1-0.8,2.7-0.6,3.5,0.5
							c0.8,1.1,0.6,2.7-0.5,3.5l-41.4,31.4C233.8,646.7,233.3,646.9,232.8,646.9z"/>
					</g>
					<g>
						<path class="st5" d="M274.2,615.5c-1.1,0-2.1-0.7-2.4-1.8c-0.4-1.3,0.3-2.7,1.7-3.1l6.8-2.1c1.3-0.4,2.7,0.3,3.1,1.7
							c0.4,1.3-0.3,2.7-1.7,3.1l-6.8,2.1C274.7,615.5,274.5,615.5,274.2,615.5z"/>
					</g>
					<g>
						<path class="st5" d="M284.2,618.4c-0.8,0-1.6-0.4-2.1-1.1l-3.2-5c-0.8-1.2-0.4-2.7,0.7-3.5c1.2-0.8,2.7-0.4,3.5,0.7l3.2,5
							c0.8,1.2,0.4,2.7-0.7,3.5C285.2,618.2,284.7,618.4,284.2,618.4z"/>
					</g>
					<g>
						<path class="st5" d="M297.6,646.2c-0.4,0-0.8-0.1-1.2-0.3c-1.2-0.6-1.7-2.1-1.1-3.4l1.8-3.5c0.6-1.2,2.1-1.7,3.4-1.1
							c1.2,0.6,1.7,2.1,1.1,3.4l-1.8,3.5C299.4,645.7,298.6,646.2,297.6,646.2z"/>
					</g>
					<g>
						<path class="st5" d="M273,665.6c-0.7,0-1.5-0.3-2-1c-0.9-1.1-0.7-2.7,0.4-3.5l24.6-19.4c1.1-0.9,2.7-0.7,3.5,0.4
							c0.9,1.1,0.7,2.7-0.4,3.5L274.6,665C274.1,665.4,273.6,665.6,273,665.6z"/>
					</g>
					<g>
						<path class="st5" d="M273,665.6c-0.7,0-1.4-0.3-1.9-0.9l-1.7-1.9c-0.9-1-0.8-2.6,0.2-3.5c1-0.9,2.6-0.8,3.5,0.2l1.7,1.9
							c0.9,1,0.8,2.6-0.2,3.5C274.2,665.4,273.6,665.6,273,665.6z"/>
					</g>
					<g>
						<path class="st5" d="M271.4,663.7c-0.6,0-1.3-0.2-1.8-0.7c-1-1-1-2.6,0-3.5l21.9-21.9c1-1,2.6-1,3.5,0c1,1,1,2.6,0,3.5
							l-21.9,21.9C272.6,663.4,272,663.7,271.4,663.7z"/>
					</g>
					<g>
						<path class="st5" d="M293.2,641.8c-0.9,0-1.9-0.5-2.3-1.5c-0.6-1.3,0-2.7,1.2-3.3l3.9-1.8c1.3-0.6,2.7,0,3.3,1.2
							c0.6,1.3,0,2.7-1.2,3.3l-3.9,1.8C293.9,641.7,293.6,641.8,293.2,641.8z"/>
					</g>
					<g>
						<path class="st5" d="M299.5,642.7c-0.7,0-1.4-0.3-1.9-0.8l-2.4-2.7c-0.9-1-0.8-2.6,0.2-3.5c1-0.9,2.6-0.8,3.5,0.2l2.4,2.7
							c0.9,1,0.8,2.6-0.2,3.5C300.7,642.5,300.1,642.7,299.5,642.7z"/>
					</g>
					<g>
						<path class="st5" d="M321.2,665.8c-0.3,0-0.7-0.1-1-0.2c-1.3-0.5-1.9-2-1.3-3.3l1.1-2.5c0.5-1.3,2-1.9,3.3-1.3
							c1.3,0.5,1.9,2,1.3,3.3l-1.1,2.5C323.1,665.2,322.2,665.8,321.2,665.8z"/>
					</g>
					<g>
						<path class="st5" d="M305.5,680.1c-0.7,0-1.4-0.3-1.8-0.8c-0.9-1-0.9-2.6,0.2-3.5l15.7-14.3c1-0.9,2.6-0.9,3.5,0.2
							c0.9,1,0.9,2.6-0.2,3.5l-15.7,14.3C306.7,679.9,306.1,680.1,305.5,680.1z"/>
					</g>
					<g>
						<path class="st5" d="M305.5,680.1c-0.6,0-1.3-0.2-1.8-0.7l-1.2-1.2c-1-1-1-2.6,0-3.5c1-1,2.6-1,3.5,0l1.2,1.2c1,1,1,2.6,0,3.5
							C306.8,679.9,306.2,680.1,305.5,680.1z"/>
					</g>
					<g>
						<path class="st5" d="M304.3,678.9c-0.6,0-1.2-0.2-1.6-0.6c-1-0.9-1.2-2.5-0.3-3.5l13.7-15.9c0.9-1,2.5-1.2,3.5-0.3
							c1,0.9,1.2,2.5,0.3,3.5L306.2,678C305.7,678.6,305,678.9,304.3,678.9z"/>
					</g>
					<g>
						<path class="st5" d="M318,663c-0.9,0-1.7-0.5-2.2-1.3c-0.7-1.2-0.2-2.7,1-3.4l2.5-1.4c1.2-0.7,2.7-0.2,3.4,1
							c0.7,1.2,0.2,2.7-1,3.4l-2.5,1.4C318.8,662.9,318.4,663,318,663z"/>
					</g>
					<g>
						<path class="st5" d="M322.2,663.3c-0.6,0-1.2-0.2-1.7-0.7l-1.8-1.7c-1-1-1-2.5-0.1-3.5c0.9-1,2.5-1,3.5-0.1l1.8,1.7
							c1,1,1,2.5,0.1,3.5C323.6,663.1,322.9,663.3,322.2,663.3z"/>
					</g>
					<g>
						<path class="st5" d="M346.8,686.2c-0.3,0-0.7-0.1-1-0.2c-1.3-0.5-1.9-2-1.3-3.3l0.5-1.3c0.5-1.3,2-1.9,3.3-1.3
							c1.3,0.5,1.9,2,1.3,3.3l-0.5,1.3C348.7,685.6,347.7,686.2,346.8,686.2z"/>
					</g>
					<g>
						<path class="st5" d="M338.7,693.5c-0.7,0-1.4-0.3-1.8-0.8c-0.9-1-0.9-2.6,0.2-3.5l8.1-7.4c1-0.9,2.6-0.9,3.5,0.2
							c0.9,1,0.9,2.6-0.2,3.5l-8.1,7.4C339.9,693.3,339.3,693.5,338.7,693.5z"/>
					</g>
					<g>
						<path class="st5" d="M338.7,693.5c-0.6,0-1.3-0.2-1.8-0.7l-0.6-0.6c-1-1-1-2.6,0-3.5c1-1,2.6-1,3.5,0l0.6,0.6c1,1,1,2.6,0,3.5
							C340,693.3,339.3,693.5,338.7,693.5z"/>
					</g>
					<g>
						<path class="st5" d="M338.1,692.9c-0.6,0-1.2-0.2-1.6-0.6c-1-0.9-1.2-2.5-0.3-3.5l7-8.2c0.9-1,2.5-1.2,3.5-0.3
							c1,0.9,1.2,2.5,0.3,3.5l-7,8.2C339.5,692.6,338.8,692.9,338.1,692.9z"/>
					</g>
					<g>
						<path class="st5" d="M345.1,684.8c-0.9,0-1.7-0.5-2.2-1.3c-0.7-1.2-0.2-2.7,1-3.4l1.3-0.7c1.2-0.7,2.7-0.2,3.4,1
							c0.7,1.2,0.2,2.7-1,3.4l-1.3,0.7C345.9,684.7,345.5,684.8,345.1,684.8z"/>
					</g>
					<g>
						<path class="st5" d="M347.3,684.9c-0.6,0-1.2-0.2-1.7-0.7l-0.9-0.9c-1-1-1-2.5-0.1-3.5c1-1,2.5-1,3.5-0.1l0.9,0.9
							c1,1,1,2.5,0.1,3.5C348.6,684.7,348,684.9,347.3,684.9z"/>
					</g>
					<g>
						<path class="st5" d="M317.3,414.8c-1.4,0-2.5-1.1-2.5-2.5c0-1.4,1.1-2.5,2.5-2.5l181.1-1.5c0,0,0,0,0,0c1.4,0,2.5,1.1,2.5,2.5
							c0,1.4-1.1,2.5-2.5,2.5L317.3,414.8C317.3,414.8,317.3,414.8,317.3,414.8z"/>
					</g>
					<g>
						<path class="st5" d="M498.3,413.2c-0.4,0-0.8-0.1-1.2-0.3c-1.2-0.7-1.7-2.2-1-3.4l21.6-39.3c0.7-1.2,2.2-1.7,3.4-1
							c1.2,0.7,1.7,2.2,1,3.4L500.5,412C500.1,412.8,499.2,413.2,498.3,413.2z"/>
					</g>
					<g>
						<path class="st5" d="M520,373.9c-0.8,0-1.6-0.4-2.1-1.1l-17.5-26.6c-0.8-1.2-0.4-2.7,0.7-3.5c1.2-0.8,2.7-0.4,3.5,0.7L522,370
							c0.8,1.2,0.4,2.7-0.7,3.5C520.9,373.8,520.4,373.9,520,373.9z"/>
					</g>
					<g>
						<path class="st5" d="M502.5,347.3h-96.4c-1.4,0-2.5-1.1-2.5-2.5s1.1-2.5,2.5-2.5h96.4c1.4,0,2.5,1.1,2.5,2.5
							S503.8,347.3,502.5,347.3z"/>
					</g>
					<g>
						<path class="st5" d="M493.8,347.3c-1.4,0-2.5-1.1-2.5-2.5c0-18.4-39-34-85.2-34c-1.4,0-2.5-1.1-2.5-2.5s1.1-2.5,2.5-2.5
							c50.6,0,90.2,17.1,90.2,39C496.3,346.2,495.2,347.3,493.8,347.3z"/>
					</g>
					<g>
						<path class="st5" d="M482.1,585.9c-1.4,0-2.5-1.1-2.5-2.5V410.9c0-1.4,1.1-2.5,2.5-2.5s2.5,1.1,2.5,2.5v172.5
							C484.6,584.8,483.5,585.9,482.1,585.9z"/>
					</g>
					<g>
						<path class="st5" d="M482.1,585.9h-76.1c-1.4,0-2.5-1.1-2.5-2.5s1.1-2.5,2.5-2.5h76.1c1.4,0,2.5,1.1,2.5,2.5
							S483.5,585.9,482.1,585.9z"/>
					</g>
					<g>
						<path class="st5" d="M493.4,600.4c-0.7,0-1.5-0.3-2-1l-11.2-14.5c-0.8-1.1-0.6-2.7,0.4-3.5c1.1-0.8,2.7-0.6,3.5,0.4l11.2,14.5
							c0.8,1.1,0.6,2.7-0.4,3.5C494.4,600.2,493.9,600.4,493.4,600.4z"/>
					</g>
					<g>
						<path class="st5" d="M474.1,616.1c-0.7,0-1.4-0.3-1.9-0.9c-0.9-1.1-0.7-2.6,0.3-3.5l19.2-15.8c1.1-0.9,2.6-0.7,3.5,0.3
							c0.9,1.1,0.7,2.6-0.3,3.5l-19.2,15.8C475.3,616,474.7,616.1,474.1,616.1z"/>
					</g>
					<g>
						<path class="st5" d="M474.1,616.1h-68.1c-1.4,0-2.5-1.1-2.5-2.5s1.1-2.5,2.5-2.5h68.1c1.4,0,2.5,1.1,2.5,2.5
							S475.5,616.1,474.1,616.1z"/>
					</g>
					<g>
						<path class="st5" d="M406.1,670.5c-0.6,0-1.3-0.2-1.8-0.7c-1-1-1-2.6,0-3.5l54.4-54.4c1-1,2.6-1,3.5,0s1,2.6,0,3.5l-54.4,54.4
							C407.3,670.3,406.7,670.5,406.1,670.5z"/>
					</g>
					<g>
						<path class="st5" d="M482.1,426.6c-1.4,0-2.5-1.1-2.5-2.5s1.1-2.5,2.5-2.5c12.5,0,35.2-2.7,46.3-20.6
							c12.5-20.1,7.3-53.5-15.5-99.4c-0.6-1.2-0.1-2.7,1.1-3.4c1.2-0.6,2.7-0.1,3.4,1.1C541,347,546.1,382,532.7,403.7
							C520.3,423.7,495.7,426.6,482.1,426.6z"/>
					</g>
					<g>
						<path class="st5" d="M515.2,303c-0.7,0-1.4-0.3-1.9-0.9c-0.9-1.1-0.7-2.6,0.3-3.5l27.9-23.3c1.1-0.9,2.6-0.7,3.5,0.3
							c0.9,1.1,0.7,2.6-0.3,3.5l-27.9,23.3C516.3,302.8,515.8,303,515.2,303z"/>
					</g>
					<g>
						<path class="st5" d="M526.2,293.8c-0.7,0-1.4-0.3-1.9-0.9c-34-41.9-55.5-57.1-108.3-59.2c-1.4-0.1-2.5-1.2-2.4-2.6
							c0.1-1.4,1.2-2.5,2.6-2.4c55.6,2.2,78.5,19.8,112,61.1c0.9,1.1,0.7,2.6-0.4,3.5C527.3,293.7,526.7,293.8,526.2,293.8z"/>
					</g>
					<g>
						<path class="st5" d="M482.1,459.7c-0.9,0-1.8-0.5-2.2-1.4c-0.6-1.2-0.1-2.7,1.1-3.4c0,0,0.1,0,0.1-0.1l0.1,0c0,0,0.1,0,0.1,0
							c2.8-1,4.2-2.3,4.2-3.9c0-1.8-1.4-3.6-2.5-4.6c-0.3,0.1-0.6,0.2-0.9,0.2c-1.4,0-2.5-1.1-2.5-2.5c0-1.6,1.1-2.9,2.7-3.1
							c3.1-0.4,7,4.1,7.9,8c0.5,2.2,0.9,7.6-7.1,10.6l-0.1,0.1l-0.2,0.1C482.6,459.7,482.3,459.7,482.1,459.7z"/>
					</g>
					<g>
						<path class="st5" d="M503.1,491.3c-0.3,0-0.5,0-0.8-0.1l-21-6.9c-1.3-0.4-2-1.8-1.6-3.2c0.4-1.3,1.8-2,3.2-1.6l21,6.9
							c1.3,0.4,2,1.8,1.6,3.2C505.1,490.6,504.1,491.3,503.1,491.3z"/>
					</g>
					<g>
						<path class="st5" d="M482.1,506.2c-0.9,0-1.8-0.5-2.2-1.4c-0.6-1.2-0.1-2.7,1.1-3.4c0,0,0.1,0,0.1-0.1l0.3-0.1
							c9.1-3,16-9.8,17.9-13.7c0.6-1.2,2.1-1.7,3.4-1.1c1.2,0.6,1.7,2.1,1.1,3.4c-2.8,5.5-10.7,12.7-20.6,16l-0.1,0l-0.2,0.1
							C482.6,506.1,482.3,506.2,482.1,506.2z"/>
					</g>
					<g>
						<path class="st5" d="M543.1,279.7c-0.8,0-1.5-0.4-2-1c-0.8-1.1-0.6-2.7,0.6-3.5l4.8-3.5c1.1-0.8,2.7-0.6,3.5,0.6
							c0.8,1.1,0.6,2.7-0.6,3.5l-4.8,3.5C544.1,279.5,543.6,279.7,543.1,279.7z"/>
					</g>
					<g>
						<path class="st5" d="M547.8,276.2c-1,0-1.9-0.6-2.3-1.6c-0.5-1.3,0.1-2.7,1.4-3.2l23.5-9.3c1.3-0.5,2.7,0.1,3.2,1.4
							c0.5,1.3-0.1,2.7-1.4,3.2l-23.5,9.3C548.4,276.2,548.1,276.2,547.8,276.2z"/>
					</g>
					<g>
						<path class="st5" d="M570.7,271.6c-0.1,0-0.2,0-0.3,0c-1.4-0.2-2.3-1.5-2.1-2.8l0.6-4.6c0.2-1.4,1.5-2.3,2.8-2.1
							c1.4,0.2,2.3,1.5,2.1,2.8l-0.6,4.6C573,270.7,572,271.6,570.7,271.6z"/>
					</g>
					<g>
						<path class="st5" d="M579.4,290.4c-4.7,0-8.8-1.8-11.2-5.1c-3.3-4.5-3.2-10.8,0.4-17.3c0.7-1.2,2.2-1.7,3.4-1
							c1.2,0.7,1.7,2.2,1,3.4c-2.6,4.7-2.8,9.1-0.7,12c1.9,2.6,5.5,3.6,10,2.8c1.4-0.3,2.7,0.6,2.9,2c0.3,1.4-0.6,2.7-2,2.9
							C581.8,290.3,580.6,290.4,579.4,290.4z"/>
					</g>
					<g>
						<path class="st5" d="M587.6,292.5c-0.4,0-0.7-0.1-1.1-0.2l-5-2.4c-1.2-0.6-1.8-2.1-1.2-3.3c0.6-1.2,2.1-1.8,3.3-1.2l5,2.4
							c1.2,0.6,1.8,2.1,1.2,3.3C589.4,291.9,588.5,292.5,587.6,292.5z"/>
					</g>
					<g>
						<path class="st5" d="M571.1,306.3c-0.7,0-1.4-0.3-1.9-0.9c-0.9-1.1-0.8-2.6,0.3-3.5l0.6-0.5l16-13.3c1.1-0.9,2.6-0.7,3.5,0.3
							c0.9,1.1,0.7,2.6-0.3,3.5l-16.5,13.8C572.2,306.1,571.6,306.3,571.1,306.3z"/>
					</g>
					<g>
						<path class="st5" d="M579.3,320.9c-1.4,0-2.5-1.1-2.5-2.5c0-1.4,1.1-2.5,2.5-2.5l19.9-0.1c0,0,0,0,0,0c1.4,0,2.5,1.1,2.5,2.5
							c0,1.4-1.1,2.5-2.5,2.5L579.3,320.9C579.3,320.9,579.3,320.9,579.3,320.9z"/>
					</g>
					<g>
						<path class="st5" d="M596.9,324.9c-0.4,0-0.8-0.1-1.2-0.3c-1.2-0.7-1.6-2.2-1-3.4l2.3-4.1c0.7-1.2,2.2-1.6,3.4-1
							c1.2,0.7,1.6,2.2,1,3.4l-2.3,4.1C598.6,324.4,597.8,324.9,596.9,324.9z"/>
					</g>
					<g>
						<path class="st5" d="M601.3,346.4c-0.2,0-0.3,0-0.5,0c-6.3-1.2-10.8-4.9-12.1-9.9c-1.4-5.4,1-11.2,6.6-16
							c1.1-0.9,2.6-0.8,3.5,0.3c0.9,1.1,0.8,2.6-0.3,3.5c-4.1,3.4-5.9,7.5-5,10.9c0.8,3.1,3.8,5.4,8.2,6.2c1.4,0.3,2.2,1.6,2,2.9
							C603.5,345.6,602.5,346.4,601.3,346.4z"/>
					</g>
					<g>
						<path class="st5" d="M605,350.4c-0.7,0-1.3-0.3-1.8-0.8l-3.8-4c-0.9-1-0.9-2.6,0.1-3.5c1-0.9,2.6-0.9,3.5,0.1l3.8,4
							c0.9,1,0.9,2.6-0.1,3.5C606.3,350.2,605.6,350.4,605,350.4z"/>
					</g>
					<g>
						<path class="st5" d="M587.6,356.3c-1,0-2-0.7-2.4-1.7c-0.4-1.3,0.3-2.7,1.6-3.2l17.5-5.9c1.3-0.4,2.7,0.3,3.2,1.6
							c0.4,1.3-0.3,2.7-1.6,3.2l-17.5,5.9C588.1,356.3,587.8,356.3,587.6,356.3z"/>
					</g>
					<g>
						<path class="st5" d="M584.6,411.9c-1.3,0-2.4-1-2.5-2.3c-0.1-1.4,1-2.6,2.3-2.7l21.5-1.4c1.4-0.1,2.6,1,2.7,2.3
							s-1,2.6-2.3,2.7l-21.5,1.4C584.7,411.9,584.6,411.9,584.6,411.9z"/>
					</g>
					<g>
						<path class="st5" d="M608,380.4c-0.2,0-0.4,0-0.6-0.1l-19.8-5.2c-1.3-0.3-2.1-1.7-1.8-3c0.3-1.3,1.7-2.1,3-1.8l19.8,5.2
							c1.3,0.3,2.1,1.7,1.8,3C610.1,379.6,609.1,380.4,608,380.4z"/>
					</g>
					<g>
						<path class="st5" d="M604.8,383.7c-0.6,0-1.3-0.2-1.7-0.7c-1-1-1-2.5-0.1-3.5l3.3-3.4c1-1,2.5-1,3.5-0.1c1,1,1,2.5,0.1,3.5
							l-3.3,3.4C606.1,383.5,605.4,383.7,604.8,383.7z"/>
					</g>
					<g>
						<path class="st5" d="M603.5,405.7c-0.4,0-0.7-0.1-1.1-0.2c-5.8-2.8-9.2-7.5-9.2-12.7c0-5.6,3.8-10.6,10.5-13.8
							c1.2-0.6,2.7-0.1,3.3,1.2c0.6,1.2,0.1,2.7-1.2,3.3c-4.9,2.3-7.6,5.7-7.7,9.3c0,3.2,2.3,6.2,6.4,8.1c1.2,0.6,1.8,2.1,1.2,3.3
							C605.3,405.1,604.4,405.7,603.5,405.7z"/>
					</g>
					<g>
						<path class="st5" d="M606.1,410.5c-0.9,0-1.8-0.5-2.2-1.3l-2.6-4.8c-0.7-1.2-0.2-2.7,1-3.4c1.2-0.7,2.7-0.2,3.4,1l2.6,4.8
							c0.7,1.2,0.2,2.7-1,3.4C606.9,410.4,606.5,410.5,606.1,410.5z"/>
					</g>
					<g>
						<path class="st5" d="M582.6,412.1c-1.3,0-2.4-1-2.5-2.3c-0.1-1.4,0.9-2.6,2.3-2.7l23.5-1.6c1.4-0.1,2.6,1,2.7,2.3
							c0.1,1.4-0.9,2.6-2.3,2.7l-23.5,1.6C582.7,412.1,582.7,412.1,582.6,412.1z"/>
					</g>
					<g>
						<path class="st5" d="M595,435.7c-0.4,0-0.9-0.1-1.3-0.4l-16.5-10c-1.2-0.7-1.6-2.3-0.8-3.4s2.3-1.6,3.4-0.8l16.5,10
							c1.2,0.7,1.6,2.3,0.8,3.4C596.6,435.3,595.8,435.7,595,435.7z"/>
					</g>
					<g>
						<path class="st5" d="M590.9,438c-0.9,0-1.7-0.5-2.2-1.3c-0.7-1.2-0.2-2.7,1-3.4l4.1-2.3c1.2-0.7,2.7-0.2,3.4,1
							c0.7,1.2,0.2,2.7-1,3.4l-4.1,2.3C591.7,437.9,591.3,438,590.9,438z"/>
					</g>
					<g>
						<path class="st5" d="M583.4,458.6c-0.6,0-1.2-0.2-1.7-0.6c-4.7-4.3-6.7-9.8-5.2-14.8c1.6-5.4,6.7-9.1,14-10.2
							c1.4-0.2,2.6,0.7,2.9,2.1c0.2,1.4-0.7,2.6-2.1,2.9c-5.2,0.8-9,3.3-10,6.7c-0.9,3.1,0.5,6.6,3.8,9.6c1,0.9,1.1,2.5,0.2,3.5
							C584.8,458.4,584.1,458.6,583.4,458.6z"/>
					</g>
					<g>
						<path class="st5" d="M584.5,464c-1.2,0-2.2-0.8-2.4-2l-1.1-5.4c-0.3-1.4,0.6-2.7,1.9-3c1.4-0.3,2.7,0.6,3,1.9l1.1,5.4
							c0.3,1.4-0.6,2.7-1.9,3C584.8,464,584.7,464,584.5,464z"/>
					</g>
					<g>
						<path class="st5" d="M584.5,464c-0.2,0-0.4,0-0.6-0.1l-21-4.8c-1.3-0.3-2.2-1.7-1.9-3c0.3-1.3,1.7-2.2,3-1.9l0.5,0.1l20.5,4.6
							c1.3,0.3,2.2,1.6,1.9,3C586.7,463.2,585.7,464,584.5,464z"/>
					</g>
					<g>
						<path class="st5" d="M572.2,492.7c-0.7,0-1.5-0.3-2-0.9L554.5,472c-0.9-1.1-0.7-2.7,0.3-3.5c1.1-0.9,2.6-0.7,3.5,0.3l0,0.1
							l15.8,19.8c0.9,1.1,0.7,2.7-0.4,3.5C573.3,492.5,572.7,492.7,572.2,492.7z"/>
					</g>
					<g>
						<path class="st5" d="M567.5,493.4c-1.2,0-2.3-0.9-2.5-2.1c-0.2-1.4,0.7-2.6,2.1-2.9l4.6-0.7c1.4-0.2,2.6,0.7,2.9,2.1
							c0.2,1.4-0.7,2.6-2.1,2.9l-4.6,0.7C567.8,493.4,567.7,493.4,567.5,493.4z"/>
					</g>
					<g>
						<path class="st5" d="M553.4,510.2c-0.9,0-1.8-0.5-2.2-1.3c-3-5.7-2.9-11.5,0.2-15.6c3.4-4.5,9.4-6.2,16.7-4.8
							c1.4,0.3,2.2,1.6,2,2.9s-1.6,2.2-2.9,2c-5.2-1-9.6,0-11.7,2.8c-1.9,2.6-1.9,6.4,0.2,10.3c0.6,1.2,0.2,2.7-1.1,3.4
							C554.1,510.1,553.7,510.2,553.4,510.2z"/>
					</g>
					<g>
						<path class="st5" d="M552.5,515.7c-0.1,0-0.2,0-0.4,0c-1.4-0.2-2.3-1.5-2.1-2.8l0.8-5.5c0.2-1.4,1.5-2.3,2.8-2.1
							c1.4,0.2,2.3,1.5,2.1,2.8l-0.8,5.5C554.8,514.8,553.8,515.7,552.5,515.7z"/>
					</g>
					<g>
						<path class="st5" d="M552.5,515.7c-0.5,0-0.9-0.1-1.4-0.4l-18.1-11.8c-1.2-0.8-1.5-2.3-0.7-3.5c0.8-1.2,2.3-1.5,3.5-0.7
							l18.1,11.8c1.2,0.8,1.5,2.3,0.7,3.5C554.2,515.3,553.4,515.7,552.5,515.7z"/>
					</g>
					<g>
						<path class="st5" d="M531.1,534.8c-1,0-1.9-0.6-2.3-1.6l-7.8-19.7V513c0-1.4,1.1-2.5,2.5-2.5c1.1,0,2,0.7,2.4,1.7l7.5,19.1
							c0.5,1.3-0.1,2.7-1.4,3.2C531.7,534.7,531.4,534.8,531.1,534.8z"/>
					</g>
					<g>
						<path class="st5" d="M531.1,534.8c-0.1,0-0.2,0-0.3,0l-4.6-0.6c-1.4-0.2-2.3-1.4-2.1-2.8c0.2-1.4,1.5-2.3,2.8-2.1l4.6,0.6
							c1.4,0.2,2.3,1.4,2.1,2.8C533.4,533.8,532.4,534.8,531.1,534.8z"/>
					</g>
					<g>
						<path class="st5" d="M508,546c-1.2,0-2.2-0.8-2.5-2c-1.2-6.3,0.6-11.9,4.8-14.9c4.5-3.3,10.8-3.2,17.3,0.4
							c1.2,0.7,1.7,2.2,1,3.4c-0.7,1.2-2.2,1.7-3.4,1c-4.7-2.5-9.2-2.8-12-0.7c-2.6,1.9-3.6,5.5-2.8,9.9c0.3,1.4-0.6,2.7-2,2.9
							C508.3,546,508.2,546,508,546z"/>
					</g>
					<g>
						<path class="st5" d="M505.6,551c-0.4,0-0.7-0.1-1.1-0.2c-1.2-0.6-1.8-2.1-1.2-3.3l2.4-5c0.6-1.2,2.1-1.8,3.3-1.2
							c1.2,0.6,1.8,2.1,1.2,3.3l-2.4,5C507.5,550.4,506.6,551,505.6,551z"/>
					</g>
					<g>
						<path class="st5" d="M505.6,551c-0.7,0-1.4-0.3-1.9-0.9l-13.8-16.5c-0.9-1.1-0.7-2.6,0.3-3.5c1.1-0.9,2.6-0.7,3.5,0.3
							l13.8,16.5c0.9,1.1,0.7,2.6-0.3,3.5C506.8,550.8,506.2,551,505.6,551z"/>
					</g>
					<g>
						<path class="st5" d="M491.8,534.4c-0.7,0-1.4-0.3-1.9-0.9l-9.7-11.4c-0.9-1.1-0.8-2.7,0.3-3.6c1-0.9,2.6-0.8,3.5,0.2l0.1,0.1
							l9.7,11.4c0.9,1.1,0.8,2.6-0.3,3.5C492.9,534.2,492.4,534.4,491.8,534.4z"/>
					</g>
					<g>
						<path class="st5" d="M492.2,534.4c-0.2,0-0.3,0-0.5,0c-1.4,0-2.5-1.2-2.4-2.6c0-1.4,1.2-2.4,2.5-2.4c0,0,0.1,0,0.1,0
							c6.8,0.2,18-6.6,29.9-18.2c3.5-3.5,7.1-7.4,10.7-11.5c7.8-9.2,15.1-19.5,21.8-30.6c2.6-4.3,5.1-8.8,7.5-13.5
							c5.7-11,10.5-22.2,14.2-33.3c1.5-4.5,2.9-9,4-13.5c3.2-12.4,5.1-24.6,5.6-36.3c0.2-6.3,0.1-12.6-0.5-18.5
							c-1.1-12.1-3.9-23.8-8.3-34.6c-2-5-4.5-10-7.3-14.8c-6.1-10.4-13.9-20.2-23.4-29c-1-0.9-1.1-2.5-0.1-3.5
							c0.9-1,2.5-1.1,3.5-0.1c9.8,9.1,17.9,19.3,24.3,30.1c2.9,5,5.5,10.2,7.6,15.5c4.6,11.3,7.5,23.4,8.7,36.1
							c0.6,6.2,0.7,12.6,0.5,19.2c-0.5,12-2.4,24.6-5.7,37.4c-1.2,4.6-2.6,9.2-4.1,13.8c-3.8,11.3-8.7,22.8-14.5,34.1
							c-2.5,4.8-5.1,9.4-7.7,13.7c-6.8,11.3-14.3,21.8-22.3,31.2c-3.6,4.3-7.3,8.3-11,11.8C512.3,527.5,500.6,534.4,492.2,534.4z"/>
					</g>
					<g>
						<path class="st5" d="M509.3,232.8c-1,0-1.9-0.6-2.3-1.6c-0.5-1.3,0.1-2.7,1.4-3.2l23.5-9.3c1.3-0.5,2.7,0.1,3.2,1.4
							s-0.1,2.7-1.4,3.2l-23.5,9.3C509.9,232.8,509.6,232.8,509.3,232.8z"/>
					</g>
					<g>
						<path class="st5" d="M505.6,234.5h-0.5c-1.4,0-2.5-1.1-2.5-2.5c0-1.1,0.7-2,1.7-2.4l27.5-10.9c1.3-0.5,2.7,0.1,3.2,1.4
							c0.5,1.3-0.1,2.7-1.4,3.2L505.6,234.5z"/>
					</g>
					<g>
						<path class="st5" d="M532.2,228.2c-0.1,0-0.2,0-0.3,0c-1.4-0.2-2.3-1.5-2.1-2.8l0.6-4.6c0.2-1.4,1.5-2.3,2.8-2.1
							c1.4,0.2,2.3,1.5,2.1,2.8l-0.6,4.6C534.5,227.3,533.4,228.2,532.2,228.2z"/>
					</g>
					<g>
						<path class="st5" d="M540.8,247c-4.7,0-8.8-1.8-11.2-5.1c-3.3-4.5-3.2-10.8,0.4-17.3c0.7-1.2,2.2-1.7,3.4-1
							c1.2,0.7,1.7,2.2,1,3.4c-2.5,4.7-2.8,9.2-0.7,12c1.9,2.6,5.5,3.6,9.9,2.8c1.4-0.3,2.7,0.6,2.9,2s-0.6,2.7-2,2.9
							C543.2,246.9,542,247,540.8,247z"/>
					</g>
					<g>
						<path class="st5" d="M549,249c-0.4,0-0.7-0.1-1.1-0.2l-5-2.4c-1.2-0.6-1.8-2.1-1.2-3.3s2.1-1.8,3.3-1.2l5,2.4
							c1.2,0.6,1.8,2.1,1.2,3.3C550.8,248.5,549.9,249,549,249z"/>
					</g>
					<g>
						<path class="st5" d="M534.4,261.3c-0.6,0-1.3-0.2-1.8-0.7c-1-1-1-2.6,0-3.5l0.2-0.2l14.6-12.2c1.1-0.9,2.6-0.7,3.5,0.3
							c0.9,1.1,0.7,2.6-0.3,3.5L536,260.7C535.5,261.1,534.9,261.3,534.4,261.3z"/>
					</g>
					<g>
						<path class="st5" d="M468.5,214.1c-0.4,0-0.8-0.1-1.2-0.3c-1.2-0.7-1.6-2.2-1-3.4l8.8-15.9c0.7-1.2,2.2-1.7,3.4-1
							c1.2,0.7,1.7,2.2,1,3.4l-8.8,15.9C470.2,213.7,469.3,214.1,468.5,214.1z"/>
					</g>
					<g>
						<path class="st5" d="M479.7,202.2c-0.8,0-1.7-0.4-2.1-1.2l-2.5-4c-0.7-1.2-0.4-2.7,0.8-3.4c1.2-0.7,2.7-0.4,3.4,0.8l2.5,4
							c0.7,1.2,0.4,2.7-0.8,3.4C480.6,202.1,480.2,202.2,479.7,202.2z"/>
					</g>
					<g>
						<path class="st5" d="M490.9,214.1c-1,0-1.9-0.1-2.9-0.4c-5.4-1.4-9.3-6.3-10.8-13.6c-0.3-1.4,0.6-2.7,2-2.9
							c1.3-0.3,2.7,0.6,2.9,2c1,5.2,3.7,8.8,7.1,9.7c3.1,0.8,6.6-0.7,9.5-4.2c0.9-1.1,2.5-1.2,3.5-0.3c1.1,0.9,1.2,2.5,0.3,3.5
							C499.2,211.9,495,214.1,490.9,214.1z"/>
					</g>
					<g>
						<path class="st5" d="M500.6,208.9c-1.1,0-2.1-0.8-2.4-1.9c-0.3-1.3,0.5-2.7,1.8-3l5.3-1.3c1.3-0.3,2.7,0.5,3,1.8
							c0.3,1.3-0.5,2.7-1.8,3l-5.3,1.3C501,208.8,500.8,208.9,500.6,208.9z"/>
					</g>
					<g>
						<path class="st5" d="M501.5,231.8c-0.2,0-0.3,0-0.5,0c-1.4-0.2-2.3-1.6-2-2.9l4.5-24.2c0.2-1.4,1.5-2.3,2.9-2
							c1.4,0.3,2.3,1.6,2,2.9l-4.5,24.2C503.7,230.9,502.7,231.8,501.5,231.8z"/>
					</g>
					<g>
						<path class="st5" d="M414.7,213.3c-0.2,0-0.3,0-0.5,0c-1.4-0.3-2.2-1.6-2-2.9l5-24.8c0.3-1.4,1.6-2.2,2.9-2
							c1.4,0.3,2.2,1.6,2,2.9l-5,24.8C416.9,212.4,415.9,213.3,414.7,213.3z"/>
					</g>
					<g>
						<path class="st5" d="M423.2,191.5c-0.6,0-1.2-0.2-1.6-0.6l-3.5-3.1c-1-0.9-1.2-2.5-0.3-3.5c0.9-1,2.5-1.2,3.5-0.3l3.5,3.1
							c1,0.9,1.2,2.5,0.3,3.5C424.6,191.2,423.9,191.5,423.2,191.5z"/>
					</g>
					<g>
						<path class="st5" d="M434.7,199.9c-5.3,0-10.3-3.5-13.7-9.7c-0.7-1.2-0.2-2.7,1-3.4c1.2-0.7,2.7-0.2,3.4,1
							c2.6,4.7,6.2,7.3,9.7,7.1c3.2-0.2,6-2.7,7.7-6.8c0.5-1.3,2-1.9,3.3-1.4c1.3,0.5,1.9,2,1.4,3.3c-2.4,5.9-6.9,9.6-12.1,9.9
							C435.1,199.9,434.9,199.9,434.7,199.9z"/>
					</g>
					<g>
						<path class="st5" d="M445.2,191.5c-0.8,0-1.7-0.4-2.1-1.2c-0.7-1.2-0.4-2.7,0.8-3.4l4.7-2.9c1.2-0.7,2.7-0.4,3.4,0.8
							c0.7,1.2,0.4,2.7-0.8,3.4l-4.7,2.9C446.1,191.4,445.6,191.5,445.2,191.5z"/>
					</g>
					<g>
						<path class="st5" d="M452.5,210c-1.2,0-2.3-0.9-2.5-2.2l-2.7-21.4c-0.2-1.4,0.8-2.6,2.2-2.8c1.4-0.2,2.6,0.8,2.8,2.2l2.7,21.4
							c0.2,1.4-0.8,2.6-2.2,2.8C452.7,210,452.6,210,452.5,210z"/>
					</g>
					<g>
						<path class="st5" d="M416,233.7c-1.3,0-2.4-1-2.5-2.3l-1.3-20.4c-0.1-1.4,1-2.6,2.3-2.7c1.4-0.1,2.6,1,2.7,2.3l1.3,20.4
							c0.1,1.4-1,2.6-2.3,2.7C416.1,233.7,416.1,233.7,416,233.7z"/>
					</g>
					<g>
						<path class="st5" d="M547.8,276.2c-0.7,0-1.4-0.3-1.9-0.9c-4.6-5.3-9.1-10.3-13.4-14.9c-10.2-10.7-19.6-19.4-28.9-26.6
							c-1.2-0.9-2.4-1.8-3.6-2.7c-10.9-7.9-21.5-13.6-32.4-17.2c-5-1.7-10.1-2.9-15.6-3.8c-7.4-1.3-14.5-1.8-21.9-2.4
							c-4.7-0.4-9.5-0.7-14.4-1.3c-1.4-0.2-2.4-1.4-2.2-2.8s1.4-2.4,2.8-2.2c4.8,0.6,9.6,0.9,14.2,1.3c7.3,0.6,14.8,1.2,22.4,2.5
							c5.8,1,11.1,2.3,16.3,4c11.4,3.8,22.4,9.6,33.8,17.9c1.2,0.9,2.4,1.8,3.7,2.7c9.5,7.3,19.2,16.2,29.5,27.1
							c4.4,4.6,8.9,9.7,13.5,15c0.9,1,0.8,2.6-0.3,3.5C549,276,548.4,276.2,547.8,276.2z"/>
					</g>
					<g>
						<path class="st5" d="M434.2,195.7c-5.7,0-10.3-4.6-10.3-10.3c0-5.7,4.6-10.3,10.3-10.3c5.7,0,10.3,4.6,10.3,10.3
							C444.5,191.1,439.9,195.7,434.2,195.7z M434.2,180.1c-2.9,0-5.3,2.4-5.3,5.3c0,2.9,2.4,5.3,5.3,5.3c2.9,0,5.3-2.4,5.3-5.3
							C439.5,182.4,437.1,180.1,434.2,180.1z"/>
					</g>
					<g>
						<path class="st5" d="M491.8,210c-5.7,0-10.3-4.6-10.3-10.3c0-5.7,4.6-10.3,10.3-10.3c5.7,0,10.3,4.6,10.3,10.3
							C502.1,205.4,497.5,210,491.8,210z M491.8,194.4c-2.9,0-5.3,2.4-5.3,5.3c0,2.9,2.4,5.3,5.3,5.3c2.9,0,5.3-2.4,5.3-5.3
							C497.1,196.8,494.7,194.4,491.8,194.4z"/>
					</g>
					<g>
						<path class="st5" d="M541.7,243.8c-5.7,0-10.3-4.6-10.3-10.3c0-5.7,4.6-10.3,10.3-10.3c5.7,0,10.3,4.6,10.3,10.3
							C552,239.2,547.4,243.8,541.7,243.8z M541.7,228.2c-2.9,0-5.3,2.4-5.3,5.3c0,2.9,2.4,5.3,5.3,5.3c2.9,0,5.3-2.4,5.3-5.3
							C547,230.6,544.6,228.2,541.7,228.2z"/>
					</g>
					<g>
						<path class="st5" d="M580.4,285.8c-5.7,0-10.3-4.6-10.3-10.3c0-5.7,4.6-10.3,10.3-10.3c5.7,0,10.3,4.6,10.3,10.3
							C590.7,281.2,586,285.8,580.4,285.8z M580.4,270.2c-2.9,0-5.3,2.4-5.3,5.3c0,2.9,2.4,5.3,5.3,5.3c2.9,0,5.3-2.4,5.3-5.3
							C585.7,272.5,583.3,270.2,580.4,270.2z"/>
					</g>
					<g>
						<path class="st5" d="M603.2,343.5c-5.7,0-10.3-4.6-10.3-10.3c0-5.7,4.6-10.3,10.3-10.3c5.7,0,10.3,4.6,10.3,10.3
							C613.5,338.8,608.8,343.5,603.2,343.5z M603.2,327.8c-2.9,0-5.3,2.4-5.3,5.3c0,2.9,2.4,5.3,5.3,5.3c2.9,0,5.3-2.4,5.3-5.3
							C608.5,330.2,606.1,327.8,603.2,327.8z"/>
					</g>
					<g>
						<path class="st5" d="M608.3,402.9c-5.7,0-10.3-4.6-10.3-10.3c0-5.7,4.6-10.3,10.3-10.3c5.7,0,10.3,4.6,10.3,10.3
							C618.6,398.3,614,402.9,608.3,402.9z M608.3,387.3c-2.9,0-5.3,2.4-5.3,5.3c0,2.9,2.4,5.3,5.3,5.3c2.9,0,5.3-2.4,5.3-5.3
							C613.6,389.6,611.2,387.3,608.3,387.3z"/>
					</g>
					<g>
						<path class="st5" d="M589.2,457.7c-5.7,0-10.3-4.6-10.3-10.3c0-5.7,4.6-10.3,10.3-10.3c5.7,0,10.3,4.6,10.3,10.3
							C599.6,453,594.9,457.7,589.2,457.7z M589.2,442c-2.9,0-5.3,2.4-5.3,5.3c0,2.9,2.4,5.3,5.3,5.3c2.9,0,5.3-2.4,5.3-5.3
							C594.6,444.4,592.2,442,589.2,442z"/>
					</g>
					<g>
						<path class="st5" d="M564.3,512.4c-5.7,0-10.3-4.6-10.3-10.3c0-5.7,4.6-10.3,10.3-10.3c5.7,0,10.3,4.6,10.3,10.3
							C574.6,507.7,569.9,512.4,564.3,512.4z M564.3,496.7c-2.9,0-5.3,2.4-5.3,5.3c0,2.9,2.4,5.3,5.3,5.3c2.9,0,5.3-2.4,5.3-5.3
							C569.6,499.1,567.2,496.7,564.3,496.7z"/>
					</g>
					<g>
						<path class="st5" d="M519,550.5c-5.7,0-10.3-4.6-10.3-10.3c0-5.7,4.6-10.3,10.3-10.3c5.7,0,10.3,4.6,10.3,10.3
							C529.3,545.9,524.7,550.5,519,550.5z M519,534.9c-2.9,0-5.3,2.4-5.3,5.3c0,2.9,2.4,5.3,5.3,5.3c2.9,0,5.3-2.4,5.3-5.3
							C524.3,537.3,521.9,534.9,519,534.9z"/>
					</g>
					<g>
						<path class="st5" d="M446.2,167.5c-0.4,0-0.8-0.1-1.2-0.3c-1.2-0.7-1.7-2.2-1-3.4l8.1-14.7c0.7-1.2,2.2-1.7,3.4-1
							c1.2,0.7,1.7,2.2,1,3.4l-8.1,14.7C447.9,167,447,167.5,446.2,167.5z"/>
					</g>
					<g>
						<path class="st5" d="M454.3,152.8c-0.1,0-0.1,0-0.2,0c-1.4-0.1-2.4-1.3-2.3-2.7l10-133.1c0.1-1.4,1.3-2.4,2.7-2.3
							c1.4,0.1,2.4,1.3,2.3,2.7l-10,133.1C456.7,151.8,455.6,152.8,454.3,152.8z"/>
					</g>
					<g>
						<path class="st5" d="M464.3,19.6c-0.1,0-0.2,0-0.3,0l-10.7-1.4c-1.4-0.2-2.3-1.4-2.2-2.8s1.4-2.3,2.8-2.2l10.7,1.4
							c1.4,0.2,2.3,1.4,2.2,2.8C466.6,18.7,465.5,19.6,464.3,19.6z"/>
					</g>
					<g>
						<path class="st5" d="M428,147.4c-0.2,0-0.3,0-0.5,0c-1.4-0.3-2.2-1.6-2-2.9l25.6-129.1c0.3-1.4,1.6-2.2,2.9-2
							c1.4,0.3,2.2,1.6,2,2.9l-25.6,129.1C430.2,146.5,429.2,147.4,428,147.4z"/>
					</g>
					<g>
						<path class="st5" d="M430.9,165.2c-1.2,0-2.3-0.9-2.5-2.1l-2.9-17.9c-0.2-1.4,0.7-2.6,2.1-2.9c1.4-0.2,2.6,0.7,2.9,2.1
							l2.9,17.9c0.2,1.4-0.7,2.6-2.1,2.9C431.2,165.2,431.1,165.2,430.9,165.2z"/>
					</g>
					<g>
						<path class="st5" d="M446.2,167.5c-0.1,0-0.2,0-0.4,0l-15.2-2.3c-1.4-0.2-2.3-1.5-2.1-2.8c0.2-1.4,1.5-2.3,2.8-2.1l15.2,2.3
							c1.4,0.2,2.3,1.5,2.1,2.8C448.4,166.6,447.4,167.5,446.2,167.5z"/>
					</g>
					<g>
						<path class="st5" d="M505.2,192.1c-0.7,0-1.3-0.3-1.8-0.8c-0.9-1-0.9-2.6,0.1-3.5l12.3-11.4c1-0.9,2.6-0.9,3.5,0.1
							c0.9,1,0.9,2.6-0.1,3.5l-12.3,11.4C506.4,191.9,505.8,192.1,505.2,192.1z"/>
					</g>
					<g>
						<path class="st5" d="M517.5,180.7c-0.3,0-0.7-0.1-1-0.2c-1.3-0.5-1.9-2-1.3-3.3l51.6-123.1c0.5-1.3,2-1.9,3.3-1.3
							c1.3,0.5,1.9,2,1.3,3.3l-51.6,123.1C519.4,180.2,518.5,180.7,517.5,180.7z"/>
					</g>
					<g>
						<path class="st5" d="M569.1,57.6c-0.4,0-0.7-0.1-1.1-0.3l-9.7-4.7c-1.2-0.6-1.8-2.1-1.2-3.3c0.6-1.2,2.1-1.8,3.3-1.2l9.7,4.7
							c1.2,0.6,1.8,2.1,1.2,3.3C570.9,57.1,570,57.6,569.1,57.6z"/>
					</g>
					<g>
						<path class="st5" d="M494.3,167.3c-0.4,0-0.8-0.1-1.2-0.3c-1.2-0.7-1.6-2.2-0.9-3.4l65.1-114.4c0.7-1.2,2.2-1.6,3.4-0.9
							c1.2,0.7,1.6,2.2,0.9,3.4L496.5,166C496,166.8,495.2,167.3,494.3,167.3z"/>
					</g>
					<g>
						<path class="st5" d="M491.4,185.2c-0.1,0-0.3,0-0.4,0c-1.4-0.2-2.3-1.5-2.1-2.9l2.9-17.9c0.2-1.4,1.5-2.3,2.9-2.1
							c1.4,0.2,2.3,1.5,2.1,2.9l-2.9,17.9C493.7,184.3,492.6,185.2,491.4,185.2z"/>
					</g>
					<g>
						<path class="st5" d="M505.1,192.1c-0.4,0-0.8-0.1-1.1-0.3l-13.7-7c-1.2-0.6-1.7-2.1-1.1-3.4c0.6-1.2,2.1-1.7,3.4-1.1l13.7,7
							c1.2,0.6,1.7,2.1,1.1,3.4C506.9,191.6,506.1,192.1,505.1,192.1z"/>
					</g>
					<g>
						<path class="st5" d="M555.1,228.9c-0.9,0-1.8-0.5-2.2-1.4c-0.6-1.2-0.1-2.7,1.1-3.4l14.2-7.1c1.2-0.6,2.7-0.1,3.4,1.1
							c0.6,1.2,0.1,2.7-1.1,3.4l-14.2,7.1C555.9,228.8,555.5,228.9,555.1,228.9z"/>
					</g>
					<g>
						<path class="st5" d="M569.4,221.8c-0.6,0-1.1-0.2-1.6-0.6c-1.1-0.9-1.2-2.4-0.4-3.5l79.7-98.5c0.9-1.1,2.4-1.2,3.5-0.4
							c1.1,0.9,1.2,2.4,0.4,3.5l-79.7,98.5C570.8,221.5,570.1,221.8,569.4,221.8z"/>
					</g>
					<g>
						<path class="st5" d="M649,123.3c-0.6,0-1.2-0.2-1.7-0.6l-7.6-6.9c-1-0.9-1.1-2.5-0.2-3.5c0.9-1,2.5-1.1,3.5-0.2l7.6,6.9
							c1,0.9,1.1,2.5,0.2,3.5C650.4,123,649.7,123.3,649,123.3z"/>
					</g>
					<g>
						<path class="st5" d="M551.8,203.4c-0.7,0-1.3-0.3-1.8-0.8c-1-1-0.9-2.6,0.1-3.5l89.7-87c1-1,2.6-0.9,3.5,0.1
							c1,1,0.9,2.6-0.1,3.5l-89.7,87C553.1,203.2,552.5,203.4,551.8,203.4z"/>
					</g>
					<g>
						<path class="st5" d="M544.5,218.9c-0.4,0-0.7-0.1-1.1-0.2c-1.2-0.6-1.8-2.1-1.2-3.3l7.3-15.5c0.6-1.2,2.1-1.8,3.3-1.2
							c1.2,0.6,1.8,2.1,1.2,3.3l-7.3,15.5C546.3,218.4,545.4,218.9,544.5,218.9z"/>
					</g>
					<g>
						<path class="st5" d="M555.1,228.9c-0.6,0-1.2-0.2-1.7-0.7l-10.6-10c-1-0.9-1.1-2.5-0.1-3.5c0.9-1,2.5-1.1,3.5-0.1l10.6,10
							c1,0.9,1.1,2.5,0.1,3.5C556.5,228.6,555.8,228.9,555.1,228.9z"/>
					</g>
					<g>
						<path class="st5" d="M593.7,275.7c-1.2,0-2.2-0.8-2.4-2c-0.3-1.4,0.6-2.7,2-2.9l13.9-2.8c1.4-0.3,2.7,0.6,2.9,2
							c0.3,1.4-0.6,2.7-2,2.9l-13.9,2.8C594,275.6,593.8,275.7,593.7,275.7z"/>
					</g>
					<g>
						<path class="st5" d="M607.6,272.8c-0.8,0-1.6-0.4-2-1.1c-0.8-1.1-0.5-2.7,0.6-3.5l91.6-64.8c1.1-0.8,2.7-0.5,3.5,0.6
							c0.8,1.1,0.5,2.7-0.6,3.5L609,272.4C608.6,272.7,608.1,272.8,607.6,272.8z"/>
					</g>
					<g>
						<path class="st5" d="M699.1,208c-0.8,0-1.6-0.4-2.1-1.1l-4.9-7.4c-0.8-1.2-0.4-2.7,0.7-3.5c1.2-0.8,2.7-0.4,3.5,0.7l4.9,7.4
							c0.8,1.2,0.4,2.7-0.7,3.5C700.1,207.9,699.6,208,699.1,208z"/>
					</g>
					<g>
						<path class="st5" d="M596.9,253.7c-0.9,0-1.7-0.5-2.2-1.3c-0.7-1.2-0.2-2.7,1-3.4l97.4-53c1.2-0.7,2.7-0.2,3.4,1
							c0.7,1.2,0.2,2.7-1,3.4l-97.4,53C597.7,253.6,597.3,253.7,596.9,253.7z"/>
					</g>
					<g>
						<path class="st5" d="M586.9,265c-0.6,0-1.2-0.2-1.6-0.6c-1-0.9-1.1-2.5-0.2-3.5l10-11.3c0.9-1,2.5-1.1,3.5-0.2
							c1,0.9,1.1,2.5,0.2,3.5l-10,11.3C588.3,264.7,587.6,265,586.9,265z"/>
					</g>
					<g>
						<path class="st5" d="M593.7,275.7c-0.8,0-1.6-0.4-2.1-1.2l-6.8-10.6c-0.7-1.2-0.4-2.7,0.8-3.5c1.2-0.7,2.7-0.4,3.5,0.8
							l6.8,10.6c0.7,1.2,0.4,2.7-0.8,3.5C594.6,275.5,594.1,275.7,593.7,275.7z"/>
					</g>
					<g>
						<path class="st5" d="M627.5,339c-0.1,0-0.3,0-0.5,0l-11.7-2.1c-1.4-0.2-2.3-1.6-2-2.9c0.2-1.4,1.6-2.3,2.9-2L628,334
							c1.4,0.2,2.3,1.6,2,2.9C629.7,338.1,628.7,339,627.5,339z"/>
					</g>
					<g>
						<path class="st5" d="M627.5,339c-1.1,0-2.2-0.8-2.4-1.9c-0.3-1.3,0.5-2.7,1.9-3l91.2-21.7c1.3-0.3,2.7,0.5,3,1.9
							s-0.5,2.7-1.9,3l-91.2,21.7C627.9,339,627.7,339,627.5,339z"/>
					</g>
					<g>
						<path class="st5" d="M718.7,317.3c-1.2,0-2.2-0.8-2.4-2l-1.5-7.2c-0.3-1.4,0.6-2.7,2-2.9s2.7,0.6,2.9,2l1.5,7.2
							c0.3,1.4-0.6,2.7-2,2.9C719.1,317.3,718.9,317.3,718.7,317.3z"/>
					</g>
					<g>
						<path class="st5" d="M625.2,320.8c-1.3,0-2.3-0.9-2.5-2.2c-0.2-1.4,0.8-2.6,2.2-2.8l92.1-10.7c1.4-0.2,2.6,0.8,2.8,2.2
							c0.2,1.4-0.8,2.6-2.2,2.8l-92.1,10.7C625.4,320.8,625.3,320.8,625.2,320.8z"/>
					</g>
					<g>
						<path class="st5" d="M613.9,326.5c-0.9,0-1.8-0.5-2.2-1.4c-0.6-1.2-0.1-2.7,1.1-3.4l11.3-5.7c1.2-0.6,2.7-0.1,3.4,1.1
							c0.6,1.2,0.1,2.7-1.1,3.4l-11.3,5.7C614.7,326.4,614.3,326.5,613.9,326.5z"/>
					</g>
					<g>
						<path class="st5" d="M615.8,336.8c-1.2,0-2.2-0.8-2.5-2l-1.9-10.4c-0.3-1.4,0.6-2.7,2-2.9c1.4-0.3,2.7,0.6,2.9,2l1.9,10.4
							c0.3,1.4-0.6,2.7-2,2.9C616.2,336.8,616,336.8,615.8,336.8z"/>
					</g>
					<g>
						<path class="st5" d="M626.5,406.2c-0.4,0-0.9-0.1-1.3-0.4l-7.1-4.3c-1.2-0.7-1.6-2.3-0.8-3.4c0.7-1.2,2.3-1.6,3.4-0.8l7.1,4.3
							c1.2,0.7,1.6,2.3,0.8,3.4C628.2,405.7,627.4,406.2,626.5,406.2z"/>
					</g>
					<g>
						<path class="st5" d="M691.9,414.6c-0.1,0-0.2,0-0.3,0l-65.3-8.5c-1.4-0.2-2.3-1.4-2.2-2.8c0.2-1.4,1.4-2.3,2.8-2.2l65.3,8.5
							c1.4,0.2,2.3,1.4,2.2,2.8C694.2,413.7,693.1,414.6,691.9,414.6z"/>
					</g>
					<g>
						<path class="st5" d="M691.9,414.6c-0.1,0-0.3,0-0.4,0c-1.4-0.2-2.3-1.5-2.1-2.9l0.8-5.1c0.2-1.4,1.5-2.3,2.9-2.1
							c1.4,0.2,2.3,1.5,2.1,2.9l-0.8,5.1C694.1,413.8,693.1,414.6,691.9,414.6z"/>
					</g>
					<g>
						<path class="st5" d="M692.7,409.5c-0.2,0-0.4,0-0.6-0.1l-63.2-15.9c-1.3-0.3-2.2-1.7-1.8-3c0.3-1.3,1.7-2.2,3-1.8l63.2,15.9
							c1.3,0.3,2.2,1.7,1.8,3C694.8,408.7,693.8,409.5,692.7,409.5z"/>
					</g>
					<g>
						<path class="st5" d="M620.7,394.5c-1.3,0-2.3-1-2.5-2.2c-0.1-1.4,0.9-2.6,2.2-2.7l8.8-0.9c1.4-0.1,2.6,0.9,2.7,2.2
							s-0.9,2.6-2.2,2.7l-8.8,0.9C620.9,394.5,620.8,394.5,620.7,394.5z"/>
					</g>
					<g>
						<path class="st5" d="M619.4,401.9c-0.1,0-0.3,0-0.4,0c-1.4-0.2-2.3-1.5-2-2.9l1.3-7.3c0.2-1.4,1.5-2.3,2.9-2
							c1.4,0.2,2.3,1.5,2,2.9l-1.3,7.3C621.7,401,620.6,401.9,619.4,401.9z"/>
					</g>
					<g>
						<path class="st5" d="M601.4,462.6c-0.7,0-1.3-0.3-1.8-0.8l-4.6-4.8c-0.9-1-0.9-2.6,0.1-3.5c1-0.9,2.6-0.9,3.5,0.1l4.6,4.8
							c0.9,1,0.9,2.6-0.1,3.5C602.6,462.3,602,462.6,601.4,462.6z"/>
					</g>
					<g>
						<path class="st5" d="M649.7,483.2c-0.3,0-0.7-0.1-1-0.2l-48.4-20.6c-1.3-0.5-1.9-2-1.3-3.3c0.5-1.3,2-1.9,3.3-1.3l48.4,20.6
							c1.3,0.5,1.9,2,1.3,3.3C651.6,482.6,650.7,483.2,649.7,483.2z"/>
					</g>
					<g>
						<path class="st5" d="M649.7,483.2c-0.4,0-0.7-0.1-1.1-0.2c-1.3-0.6-1.8-2.1-1.2-3.3l1.8-3.8c0.6-1.2,2.1-1.8,3.3-1.2
							c1.3,0.6,1.8,2.1,1.2,3.3l-1.8,3.8C651.6,482.6,650.7,483.2,649.7,483.2z"/>
					</g>
					<g>
						<path class="st5" d="M651.5,479.4c-0.4,0-0.8-0.1-1.2-0.3l-45.1-25.8c-1.2-0.7-1.6-2.2-0.9-3.4c0.7-1.2,2.2-1.6,3.4-0.9
							l45.1,25.8c1.2,0.7,1.6,2.2,0.9,3.4C653.2,479,652.3,479.4,651.5,479.4z"/>
					</g>
					<g>
						<path class="st5" d="M606.4,453.6c-0.1,0-0.3,0-0.4,0l-7-1.2c-1.4-0.2-2.3-1.5-2-2.9s1.5-2.3,2.9-2l7,1.2
							c1.4,0.2,2.3,1.5,2,2.9C608.6,452.7,607.6,453.6,606.4,453.6z"/>
					</g>
					<g>
						<path class="st5" d="M596.8,457.7c-0.4,0-0.7-0.1-1.1-0.3c-1.2-0.6-1.8-2.1-1.2-3.3l2.6-5.3c0.6-1.2,2.1-1.8,3.3-1.2
							c1.2,0.6,1.8,2.1,1.2,3.3l-2.6,5.3C598.6,457.2,597.7,457.7,596.8,457.7z"/>
					</g>
					<g>
						<path class="st5" d="M574,516.2c-0.8,0-1.6-0.4-2.1-1.1l-2.2-3.3c-0.8-1.2-0.4-2.7,0.7-3.5c1.2-0.8,2.7-0.4,3.5,0.7l2.2,3.3
							c0.8,1.2,0.4,2.7-0.7,3.5C575,516.1,574.5,516.2,574,516.2z"/>
					</g>
					<g>
						<path class="st5" d="M600.5,533c-0.5,0-0.9-0.1-1.3-0.4l-26.5-16.7c-1.2-0.7-1.5-2.3-0.8-3.4c0.7-1.2,2.3-1.5,3.4-0.8
							l26.5,16.7c1.2,0.7,1.5,2.3,0.8,3.4C602.2,532.6,601.3,533,600.5,533z"/>
					</g>
					<g>
						<path class="st5" d="M600.5,533c-0.5,0-1-0.1-1.4-0.5c-1.1-0.8-1.4-2.4-0.6-3.5l1.5-2c0.8-1.1,2.4-1.4,3.5-0.6
							c1.1,0.8,1.4,2.4,0.6,3.5l-1.5,2C602.1,532.6,601.3,533,600.5,533z"/>
					</g>
					<g>
						<path class="st5" d="M602,530.9c-0.6,0-1.1-0.2-1.6-0.6l-24-19.5c-1.1-0.9-1.2-2.4-0.4-3.5c0.9-1.1,2.4-1.2,3.5-0.4l24,19.5
							c1.1,0.9,1.2,2.4,0.4,3.5C603.4,530.6,602.7,530.9,602,530.9z"/>
					</g>
					<g>
						<path class="st5" d="M578,511.4c-0.3,0-0.5,0-0.8-0.1l-4-1.4c-1.3-0.4-2-1.9-1.6-3.2c0.4-1.3,1.9-2,3.2-1.6l4,1.4
							c1.3,0.4,2,1.9,1.6,3.2C580,510.8,579,511.4,578,511.4z"/>
					</g>
					<g>
						<path class="st5" d="M571.8,513c-0.5,0-1-0.2-1.5-0.5c-1.1-0.8-1.4-2.4-0.5-3.5l2.1-2.9c0.8-1.1,2.4-1.4,3.5-0.5
							c1.1,0.8,1.4,2.4,0.5,3.5l-2.1,2.9C573.4,512.6,572.6,513,571.8,513z"/>
					</g>
					<g>
						<path class="st5" d="M516.4,584.8C516.4,584.8,516.4,584.8,516.4,584.8l-32.7-1c-1.4,0-2.5-1.2-2.4-2.6c0-1.4,1.1-2.5,2.6-2.4
							l32.6,1c1.4,0,2.5,1.2,2.4,2.6C518.9,583.7,517.7,584.8,516.4,584.8z"/>
					</g>
					<g>
						<path class="st5" d="M482.1,641.4c-1.1,0-2-0.7-2.4-1.7l-8-25.3c-0.4-1.3,0.3-2.7,1.6-3.1c1.3-0.4,2.7,0.3,3.1,1.6l8,25.3
							c0.4,1.3-0.3,2.7-1.6,3.1C482.6,641.4,482.4,641.4,482.1,641.4z"/>
					</g>
					<g>
						<path class="st5" d="M449.9,672.2c-0.7,0-1.4-0.3-1.9-0.9c-0.9-1-0.8-2.6,0.2-3.5c2.4-2.1,4.9-4.2,7.5-6.4
							c8-6.8,17-14.5,25.5-23.5c16.4-17.4,26.8-35.3,32.8-56.4c2.3-8.1,3.9-16.7,4.8-25.6c0.1-1.4,1.4-2.4,2.7-2.2
							c1.4,0.1,2.4,1.4,2.2,2.7c-0.9,9.2-2.6,18.1-5,26.5c-6.2,21.9-17,40.5-34,58.5c-8.7,9.2-17.8,17-25.8,23.8
							c-2.6,2.2-5.1,4.3-7.4,6.4C451,672,450.5,672.2,449.9,672.2z"/>
					</g>
					<g>
						<path class="st5" d="M521.3,558.7c-1.1,0-2.1-0.7-2.4-1.9c-0.4-1.3,0.4-2.7,1.8-3.1l10.9-2.9c1.3-0.3,2.7,0.4,3.1,1.8
							c0.4,1.3-0.4,2.7-1.8,3.1l-10.9,2.9C521.7,558.7,521.5,558.7,521.3,558.7z"/>
					</g>
					<g>
						<path class="st5" d="M541.7,565.5c-0.6,0-1.3-0.3-1.8-0.8l-9.4-9.6c-1-1-1-2.6,0-3.5c1-1,2.6-1,3.5,0l9.4,9.6c1,1,1,2.6,0,3.5
							C542.9,565.2,542.3,565.5,541.7,565.5z"/>
					</g>
					<g>
						<path class="st5" d="M453,682c-0.8,0-1.5-0.4-2-1c-0.8-1.1-0.6-2.7,0.5-3.5c0.7-0.5,1.4-1,2.1-1.5c2.9-2.2,5.8-4.4,8.6-6.5
							c5.9-4.6,11.1-9.1,16.2-13.7c2.7-2.5,5.4-5,7.9-7.6c4.5-4.5,8.8-9.3,12.9-14.1c2.2-2.6,4.3-5.3,6.3-8c3.5-4.6,6.8-9.5,10-14.6
							c2-3.1,3.8-6.3,5.6-9.4c3.3-5.8,6.4-12,9.4-18.5c1.5-3.3,3-6.7,4.4-10.1c1.5-3.7,3-7.5,4.5-11.5c0.5-1.3,1.9-2,3.2-1.5
							c1.3,0.5,2,1.9,1.5,3.2c-1.5,4-3,7.9-4.6,11.6c-1.4,3.5-2.9,7-4.5,10.3c-3,6.6-6.2,12.9-9.6,18.9c-1.8,3.1-3.7,6.4-5.7,9.6
							c-3.2,5.2-6.7,10.2-10.2,14.9c-2.1,2.7-4.2,5.5-6.5,8.2c-4.1,4.9-8.5,9.8-13.2,14.4c-2.6,2.6-5.3,5.2-8.1,7.7
							c-5.1,4.7-10.5,9.2-16.5,13.9c-2.8,2.2-5.8,4.5-8.7,6.6c-0.7,0.5-1.4,1-2.1,1.5C454.1,681.9,453.6,682,453,682z"/>
					</g>
					<g>
						<path class="st5" d="M453,682.1c-1.1,0-2-0.7-2.4-1.7l-3.2-9.8c-0.4-1.3,0.3-2.7,1.6-3.1c1.3-0.4,2.7,0.3,3.1,1.6l3.2,9.8
							c0.4,1.3-0.3,2.7-1.6,3.1C453.6,682,453.3,682.1,453,682.1z"/>
					</g>
					<g>
						<path class="st5" d="M534.9,587.7c-1.1,0-2.1-0.2-3.1-0.6c-3-1.3-4.9-4.2-4.9-7.4c0-4.5,3.6-8.1,8.1-8.1
							c1.2,0,2.3,0.2,3.3,0.7c2.9,1.3,4.8,4.2,4.8,7.4C543,584,539.3,587.7,534.9,587.7z M534.9,576.5c-1.7,0-3.1,1.4-3.1,3.1
							c0,1.2,0.7,2.3,1.9,2.8c0.4,0.2,0.8,0.2,1.2,0.2c1.7,0,3.1-1.4,3.1-3.1c0-1.2-0.7-2.3-1.8-2.8l0,0
							C535.7,576.6,535.3,576.5,534.9,576.5z"/>
					</g>
					<g>
						<path class="st5" d="M521.2,616.6c-1.9,0-3.7-0.7-5.1-1.9c-1.9-1.5-2.9-3.8-2.9-6.2c0-4.4,3.6-8.1,8.1-8.1
							c1.1,0,2.1,0.2,3,0.6c3.1,1.2,5,4.2,5,7.5C529.2,613,525.6,616.6,521.2,616.6z M521.2,605.5c-1.7,0-3.1,1.4-3.1,3.1
							c0,0.9,0.4,1.8,1.1,2.4c0.6,0.5,1.2,0.7,2,0.7c1.7,0,3.1-1.4,3.1-3.1c0-1.3-0.8-2.4-1.9-2.8l0,0
							C521.9,605.6,521.6,605.5,521.2,605.5z"/>
					</g>
					<g>
						<path class="st5" d="M505.9,641c-2.9,0-5.6-1.6-7-4.1c-0.7-1.2-1.1-2.6-1.1-4c0-4.5,3.6-8.1,8.1-8.1c0.8,0,1.5,0.1,2.3,0.3
							c3.4,1,5.8,4.2,5.8,7.7C514,637.4,510.4,641,505.9,641z M505.9,629.9c-1.7,0-3.1,1.4-3.1,3.1c0,0.5,0.1,1,0.4,1.5
							c0.6,1,1.6,1.6,2.7,1.6c1.7,0,3.1-1.4,3.1-3.1c0-1.4-0.9-2.6-2.2-2.9l0,0C506.5,629.9,506.2,629.9,505.9,629.9z"/>
					</g>
					<g>
						<path class="st5" d="M484.6,662.4c-2.6,0-5-1.2-6.5-3.3c-1-1.4-1.6-3-1.6-4.8c0-4.5,3.6-8.1,8.1-8.1c1.9,0,3.7,0.6,5.1,1.8
							c1.9,1.5,3,3.8,3,6.3C492.6,658.7,489,662.4,484.6,662.4z M484.6,651.2c-1.7,0-3.1,1.4-3.1,3.1c0,0.7,0.2,1.3,0.6,1.8
							c0.6,0.8,1.5,1.3,2.5,1.3c1.7,0,3.1-1.4,3.1-3.1c0-0.9-0.4-1.8-1.1-2.4l0,0C486,651.5,485.3,651.2,484.6,651.2z"/>
					</g>
					<g>
						<path class="st5" d="M460.2,683.7c-3.1,0-6-1.8-7.3-4.6c-0.5-1.1-0.8-2.2-0.8-3.4c0-4.5,3.6-8.1,8.1-8.1c1.9,0,3.8,0.7,5.3,2
							c1.8,1.5,2.8,3.7,2.8,6.1C468.2,680.1,464.6,683.7,460.2,683.7z M460.2,672.6c-1.7,0-3.1,1.4-3.1,3.1c0,0.5,0.1,0.9,0.3,1.3
							c0.5,1.1,1.6,1.8,2.8,1.8c1.7,0,3.1-1.4,3.1-3.1c0-0.9-0.4-1.7-1.1-2.3l-0.1,0C461.6,672.8,460.9,672.6,460.2,672.6z"/>
					</g>
					<g>
						<path class="st5" d="M548.1,594.7c-0.7,0-1.4-0.3-1.9-0.9l-5.4-6.4c-0.9-1.1-0.8-2.6,0.3-3.5c1.1-0.9,2.6-0.8,3.5,0.3l5.4,6.4
							c0.9,1.1,0.8,2.6-0.3,3.5C549.2,594.5,548.7,594.7,548.1,594.7z"/>
					</g>
					<g>
						<path class="st5" d="M607.4,623.4c-0.4,0-0.7-0.1-1.1-0.3L547,594.4c-1.2-0.6-1.8-2.1-1.2-3.3s2.1-1.8,3.3-1.2l59.3,28.7
							c1.2,0.6,1.8,2.1,1.2,3.3C609.2,622.9,608.3,623.4,607.4,623.4z"/>
					</g>
					<g>
						<path class="st5" d="M607.4,623.4c-0.4,0-0.8-0.1-1.2-0.3c-1.2-0.6-1.7-2.2-1.1-3.4l2.4-4.6c0.6-1.2,2.2-1.7,3.4-1.1
							c1.2,0.6,1.7,2.2,1.1,3.4l-2.4,4.6C609.1,622.9,608.3,623.4,607.4,623.4z"/>
					</g>
					<g>
						<path class="st5" d="M609.8,618.8c-0.5,0-0.9-0.1-1.3-0.4l-54.9-35.1c-1.2-0.7-1.5-2.3-0.8-3.5c0.7-1.2,2.3-1.5,3.5-0.8
							l54.9,35.1c1.2,0.7,1.5,2.3,0.8,3.5C611.4,618.4,610.6,618.8,609.8,618.8z"/>
					</g>
					<g>
						<path class="st5" d="M554.9,583.7c-0.2,0-0.4,0-0.5-0.1l-8.7-1.9c-1.3-0.3-2.2-1.6-1.9-3c0.3-1.3,1.6-2.2,3-1.9l8.7,1.9
							c1.3,0.3,2.2,1.6,1.9,3C557.1,582.9,556.1,583.7,554.9,583.7z"/>
					</g>
					<g>
						<path class="st5" d="M542.7,588.3c-0.4,0-0.8-0.1-1.2-0.3c-1.2-0.7-1.7-2.2-1-3.4l3.6-6.5c0.7-1.2,2.2-1.7,3.4-1
							c1.2,0.7,1.7,2.2,1,3.4l-3.6,6.5C544.4,587.8,543.6,588.3,542.7,588.3z"/>
					</g>
					<g>
						<path class="st5" d="M531.5,623.8c-0.8,0-1.5-0.4-2-1l-3.9-5.4c-0.8-1.1-0.6-2.7,0.6-3.5c1.1-0.8,2.7-0.6,3.5,0.6l3.9,5.4
							c0.8,1.1,0.6,2.7-0.6,3.5C532.6,623.6,532,623.8,531.5,623.8z"/>
					</g>
					<g>
						<path class="st5" d="M576.9,650.4c-0.4,0-0.9-0.1-1.3-0.3l-45.3-26.6c-1.2-0.7-1.6-2.2-0.9-3.4c0.7-1.2,2.2-1.6,3.4-0.9
							l45.3,26.6c1.2,0.7,1.6,2.2,0.9,3.4C578.6,650,577.7,650.4,576.9,650.4z"/>
					</g>
					<g>
						<path class="st5" d="M576.9,650.4c-0.5,0-0.9-0.1-1.3-0.4c-1.2-0.7-1.5-2.3-0.8-3.4l2.2-3.5c0.7-1.2,2.3-1.5,3.4-0.8
							c1.2,0.7,1.5,2.3,0.8,3.4l-2.2,3.5C578.5,650,577.7,650.4,576.9,650.4z"/>
					</g>
					<g>
						<path class="st5" d="M579.1,646.9c-0.5,0-1.1-0.2-1.5-0.5L536.2,615c-1.1-0.8-1.3-2.4-0.5-3.5c0.8-1.1,2.4-1.3,3.5-0.5
							l41.4,31.4c1.1,0.8,1.3,2.4,0.5,3.5C580.6,646.6,579.8,646.9,579.1,646.9z"/>
					</g>
					<g>
						<path class="st5" d="M537.7,615.5c-0.2,0-0.5,0-0.7-0.1l-6.8-2.1c-1.3-0.4-2.1-1.8-1.7-3.1c0.4-1.3,1.8-2.1,3.1-1.7l6.8,2.1
							c1.3,0.4,2.1,1.8,1.7,3.1C539.7,614.8,538.7,615.5,537.7,615.5z"/>
					</g>
					<g>
						<path class="st5" d="M527.6,618.4c-0.5,0-0.9-0.1-1.4-0.4c-1.2-0.8-1.5-2.3-0.7-3.5l3.2-5c0.8-1.2,2.3-1.5,3.5-0.7
							c1.2,0.8,1.5,2.3,0.7,3.5l-3.2,5C529.3,618,528.5,618.4,527.6,618.4z"/>
					</g>
					<g>
						<path class="st5" d="M514.2,646.2c-0.9,0-1.8-0.5-2.2-1.3l-1.8-3.5c-0.6-1.2-0.2-2.7,1.1-3.4c1.2-0.6,2.7-0.2,3.4,1.1l1.8,3.5
							c0.6,1.2,0.2,2.7-1.1,3.4C515,646.1,514.6,646.2,514.2,646.2z"/>
					</g>
					<g>
						<path class="st5" d="M538.9,665.6c-0.5,0-1.1-0.2-1.5-0.5l-24.7-19.4c-1.1-0.9-1.3-2.4-0.4-3.5c0.9-1.1,2.4-1.3,3.5-0.4
							l24.7,19.4c1.1,0.9,1.3,2.4,0.4,3.5C540.3,665.2,539.6,665.6,538.9,665.6z"/>
					</g>
					<g>
						<path class="st5" d="M538.9,665.6c-0.6,0-1.2-0.2-1.6-0.6c-1-0.9-1.1-2.5-0.2-3.5l1.7-1.9c0.9-1,2.5-1.1,3.5-0.2
							c1,0.9,1.1,2.5,0.2,3.5l-1.7,1.9C540.3,665.3,539.6,665.6,538.9,665.6z"/>
					</g>
					<g>
						<path class="st5" d="M540.5,663.7c-0.6,0-1.3-0.2-1.8-0.7l-21.9-21.9c-1-1-1-2.6,0-3.5c1-1,2.6-1,3.5,0l21.9,21.9
							c1,1,1,2.6,0,3.5C541.8,663.4,541.2,663.7,540.5,663.7z"/>
					</g>
					<g>
						<path class="st5" d="M518.7,641.8c-0.3,0-0.7-0.1-1-0.2l-3.8-1.8c-1.3-0.6-1.8-2.1-1.2-3.3c0.6-1.3,2.1-1.8,3.3-1.2l3.8,1.8
							c1.3,0.6,1.8,2.1,1.2,3.3C520.5,641.3,519.6,641.8,518.7,641.8z"/>
					</g>
					<g>
						<path class="st5" d="M512.4,642.7c-0.6,0-1.2-0.2-1.7-0.6c-1-0.9-1.1-2.5-0.2-3.5l2.4-2.7c0.9-1,2.5-1.1,3.5-0.2
							s1.1,2.5,0.2,3.5l-2.4,2.7C513.8,642.4,513.1,642.7,512.4,642.7z"/>
					</g>
					<g>
						<path class="st5" d="M490.7,665.8c-1,0-1.9-0.6-2.3-1.5l-1.1-2.5c-0.5-1.3,0-2.7,1.3-3.3c1.3-0.5,2.7,0,3.3,1.3l1.1,2.5
							c0.5,1.3,0,2.7-1.3,3.3C491.4,665.7,491,665.8,490.7,665.8z"/>
					</g>
					<g>
						<path class="st5" d="M506.4,680.1c-0.6,0-1.2-0.2-1.7-0.7L489,665.1c-1-0.9-1.1-2.5-0.2-3.5c0.9-1,2.5-1.1,3.5-0.2l15.7,14.3
							c1,0.9,1.1,2.5,0.2,3.5C507.7,679.8,507,680.1,506.4,680.1z"/>
					</g>
					<g>
						<path class="st5" d="M506.4,680.1c-0.6,0-1.3-0.2-1.8-0.7c-1-1-1-2.6,0-3.5l1.2-1.2c1-1,2.6-1,3.5,0c1,1,1,2.6,0,3.5l-1.2,1.2
							C507.6,679.9,507,680.1,506.4,680.1z"/>
					</g>
					<g>
						<path class="st5" d="M507.6,678.9c-0.7,0-1.4-0.3-1.9-0.9L492,662.2c-0.9-1-0.8-2.6,0.3-3.5c1-0.9,2.6-0.8,3.5,0.3l13.7,15.9
							c0.9,1,0.8,2.6-0.3,3.5C508.7,678.7,508.2,678.9,507.6,678.9z"/>
					</g>
					<g>
						<path class="st5" d="M493.9,663c-0.4,0-0.8-0.1-1.2-0.3l-2.5-1.4c-1.2-0.7-1.6-2.2-1-3.4c0.7-1.2,2.2-1.6,3.4-1l2.5,1.4
							c1.2,0.7,1.6,2.2,1,3.4C495.7,662.6,494.8,663,493.9,663z"/>
					</g>
					<g>
						<path class="st5" d="M489.6,663.3c-0.7,0-1.3-0.3-1.8-0.8c-1-1-0.9-2.6,0.1-3.5l1.8-1.7c1-1,2.6-0.9,3.5,0.1s0.9,2.6-0.1,3.5
							l-1.8,1.7C490.9,663.1,490.3,663.3,489.6,663.3z"/>
					</g>
					<g>
						<path class="st5" d="M465.1,686.2c-1,0-1.9-0.6-2.3-1.5l-0.5-1.3c-0.5-1.3,0-2.7,1.3-3.3c1.3-0.5,2.7,0,3.3,1.3l0.5,1.3
							c0.5,1.3,0,2.7-1.3,3.3C465.8,686.1,465.4,686.2,465.1,686.2z"/>
					</g>
					<g>
						<path class="st5" d="M473.2,693.5c-0.6,0-1.2-0.2-1.7-0.7l-8-7.4c-1-0.9-1.1-2.5-0.2-3.5c0.9-1,2.5-1.1,3.5-0.2l8,7.4
							c1,0.9,1.1,2.5,0.2,3.5C474.5,693.3,473.8,693.5,473.2,693.5z"/>
					</g>
					<g>
						<path class="st5" d="M473.2,693.5c-0.6,0-1.3-0.2-1.8-0.7c-1-1-1-2.6,0-3.5l0.6-0.6c1-1,2.6-1,3.5,0c1,1,1,2.6,0,3.5l-0.6,0.6
							C474.4,693.3,473.8,693.5,473.2,693.5z"/>
					</g>
					<g>
						<path class="st5" d="M473.8,692.9c-0.7,0-1.4-0.3-1.9-0.9l-7-8.2c-0.9-1-0.8-2.6,0.3-3.5c1-0.9,2.6-0.8,3.5,0.3l7,8.2
							c0.9,1,0.8,2.6-0.3,3.5C474.9,692.7,474.4,692.9,473.8,692.9z"/>
					</g>
					<g>
						<path class="st5" d="M466.8,684.8c-0.4,0-0.8-0.1-1.2-0.3l-1.3-0.7c-1.2-0.7-1.6-2.2-1-3.4c0.7-1.2,2.2-1.6,3.4-1l1.3,0.7
							c1.2,0.7,1.6,2.2,1,3.4C468.5,684.3,467.6,684.8,466.8,684.8z"/>
					</g>
					<g>
						<path class="st5" d="M464.6,684.9c-0.7,0-1.3-0.3-1.8-0.8c-1-1-0.9-2.6,0.1-3.5l0.9-0.9c1-1,2.6-0.9,3.5,0.1
							c1,1,0.9,2.6-0.1,3.5l-0.9,0.9C465.8,684.7,465.2,684.9,464.6,684.9z"/>
					</g>
					<g>
						<path class="st5" d="M407.3,430.7c-0.4,0-0.8,0-1.1,0c-17.2-0.6-17.2-14.5-17.2-19c0-1.4,1.1-2.5,2.5-2.5s2.5,1.1,2.5,2.5
							c0,7.1,1.5,13.6,12.4,14c0.3,0,0.6,0,1,0c1.4,0,2.5,1.1,2.5,2.5S408.7,430.7,407.3,430.7z"/>
					</g>
					<g>
						<path class="st5" d="M405.2,430.7c-1.4,0-2.5-1.1-2.5-2.5s1.1-2.5,2.5-2.5c0.3,0,0.7,0,1,0c10.9-0.4,12.4-7,12.4-14
							c0-1.4,1.1-2.5,2.5-2.5s2.5,1.1,2.5,2.5c0,4.6,0,18.4-17.2,19C406,430.7,405.6,430.7,405.2,430.7z"/>
					</g>
				</g>
			</g>
		</g>
	</g>
</g>
</svg>
